<?xml version="1.0" encoding="UTF-8" standalone="no"?>
<!DOCTYPE svg PUBLIC "-//W3C//DTD SVG 1.1//EN"
 "http://www.w3.org/Graphics/SVG/1.1/DTD/svg11.dtd">
<!-- Generated by graphviz version 2.40.1 (20161225.0304)
 -->
<!-- Title: proof Pages: 1 -->
<svg width="1767pt" height="412pt"
 viewBox="0.00 0.00 1767.06 412.00" xmlns="http://www.w3.org/2000/svg" xmlns:xlink="http://www.w3.org/1999/xlink">
<g id="graph0" class="graph" transform="scale(1 1) rotate(0) translate(4 408)">
<title>proof</title>
<polygon fill="#ffffff" stroke="transparent" points="-4,4 -4,-408 1763.0606,-408 1763.0606,4 -4,4"/>
<!-- n0 -->
<g id="node1" class="node">
<title>n0</title>
<ellipse fill="none" stroke="#000000" cx="303.6775" cy="-242" rx="111.5534" ry="18"/>
<text text-anchor="middle" x="303.6775" y="-237.8" font-family="Times,serif" font-size="14.00" fill="#000000">etc0_anthropomorphized 0.1</text>
</g>
<!-- n12 -->
<g id="node13" class="node">
<title>n12</title>
<polygon fill="none" stroke="#000000" points="430.6596,-188 250.6954,-188 250.6954,-152 430.6596,-152 430.6596,-188"/>
<text text-anchor="middle" x="340.6775" y="-165.8" font-family="Times,serif" font-size="14.00" fill="#000000">(anthropomorphized&#39; $7 $13)</text>
</g>
<!-- n0&#45;&gt;n12 -->
<g id="edge1" class="edge">
<title>n0&#45;&gt;n12</title>
<path fill="none" stroke="#000000" d="M313.0142,-223.8314C317.1018,-215.8771 321.9879,-206.369 326.5084,-197.5723"/>
<polygon fill="#000000" stroke="#000000" points="329.7574,-198.9074 331.2151,-188.4133 323.5314,-195.7078 329.7574,-198.9074"/>
</g>
<!-- n1 -->
<g id="node2" class="node">
<title>n1</title>
<ellipse fill="none" stroke="#000000" cx="1023.6775" cy="-386" rx="98.5225" ry="18"/>
<text text-anchor="middle" x="1023.6775" y="-381.8" font-family="Times,serif" font-size="14.00" fill="#000000">etc0_baseball_games 0.1</text>
</g>
<!-- n13 -->
<g id="node14" class="node">
<title>n13</title>
<polygon fill="none" stroke="#000000" points="1102.6462,-332 944.7087,-332 944.7087,-296 1102.6462,-296 1102.6462,-332"/>
<text text-anchor="middle" x="1023.6775" y="-309.8" font-family="Times,serif" font-size="14.00" fill="#000000">(baseball_games&#39; $11 $3)</text>
</g>
<!-- n1&#45;&gt;n13 -->
<g id="edge2" class="edge">
<title>n1&#45;&gt;n13</title>
<path fill="none" stroke="#000000" d="M1023.6775,-367.8314C1023.6775,-360.131 1023.6775,-350.9743 1023.6775,-342.4166"/>
<polygon fill="#000000" stroke="#000000" points="1027.1776,-342.4132 1023.6775,-332.4133 1020.1776,-342.4133 1027.1776,-342.4132"/>
</g>
<!-- n2 -->
<g id="node3" class="node">
<title>n2</title>
<ellipse fill="none" stroke="#000000" cx="1456.6775" cy="-386" rx="69.5736" ry="18"/>
<text text-anchor="middle" x="1456.6775" y="-381.8" font-family="Times,serif" font-size="14.00" fill="#000000">etc0_love_of 0.1</text>
</g>
<!-- n14 -->
<g id="node15" class="node">
<title>n14</title>
<polygon fill="none" stroke="#000000" points="1528.2777,-332 1385.0773,-332 1385.0773,-296 1528.2777,-296 1528.2777,-332"/>
<text text-anchor="middle" x="1456.6775" y="-309.8" font-family="Times,serif" font-size="14.00" fill="#000000">(love_of&#39; $12 $13 $11)</text>
</g>
<!-- n2&#45;&gt;n14 -->
<g id="edge3" class="edge">
<title>n2&#45;&gt;n14</title>
<path fill="none" stroke="#000000" d="M1456.6775,-367.8314C1456.6775,-360.131 1456.6775,-350.9743 1456.6775,-342.4166"/>
<polygon fill="#000000" stroke="#000000" points="1460.1776,-342.4132 1456.6775,-332.4133 1453.1776,-342.4133 1460.1776,-342.4132"/>
</g>
<!-- n3 -->
<g id="node4" class="node">
<title>n3</title>
<ellipse fill="none" stroke="#000000" cx="534.6775" cy="-242" rx="100.9538" ry="18"/>
<text text-anchor="middle" x="534.6775" y="-237.8" font-family="Times,serif" font-size="14.00" fill="#000000">etc0_path_destination 0.1</text>
</g>
<!-- n15 -->
<g id="node16" class="node">
<title>n15</title>
<polygon fill="none" stroke="#000000" points="621.0623,-188 448.2927,-188 448.2927,-152 621.0623,-152 621.0623,-188"/>
<text text-anchor="middle" x="534.6775" y="-165.8" font-family="Times,serif" font-size="14.00" fill="#000000">(path_destination&#39; $6 $2 $5)</text>
</g>
<!-- n3&#45;&gt;n15 -->
<g id="edge4" class="edge">
<title>n3&#45;&gt;n15</title>
<path fill="none" stroke="#000000" d="M534.6775,-223.8314C534.6775,-216.131 534.6775,-206.9743 534.6775,-198.4166"/>
<polygon fill="#000000" stroke="#000000" points="538.1776,-198.4132 534.6775,-188.4133 531.1776,-198.4133 538.1776,-198.4132"/>
</g>
<!-- n4 -->
<g id="node5" class="node">
<title>n4</title>
<ellipse fill="none" stroke="#000000" cx="644.6775" cy="-98" rx="78.2349" ry="18"/>
<text text-anchor="middle" x="644.6775" y="-93.8" font-family="Times,serif" font-size="14.00" fill="#000000">etc1_card_train 0.1</text>
</g>
<!-- n24 -->
<g id="node25" class="node">
<title>n24</title>
<polygon fill="none" stroke="#000000" points="637.7438,-40 555.6112,-40 555.6112,-4 637.7438,-4 637.7438,-40"/>
<polygon fill="none" stroke="#000000" points="641.7469,-44 551.6081,-44 551.6081,0 641.7469,0 641.7469,-44"/>
<text text-anchor="middle" x="596.6775" y="-17.8" font-family="Times,serif" font-size="14.00" fill="#000000">(card_train)</text>
</g>
<!-- n4&#45;&gt;n24 -->
<g id="edge23" class="edge">
<title>n4&#45;&gt;n24</title>
<path fill="none" stroke="#000000" d="M633.3022,-79.9891C628.176,-71.8726 621.9756,-62.0553 616.1455,-52.8243"/>
<polygon fill="#000000" stroke="#000000" points="619.0156,-50.8141 610.7164,-44.2282 613.0971,-54.5521 619.0156,-50.8141"/>
</g>
<!-- n5 -->
<g id="node6" class="node">
<title>n5</title>
<ellipse fill="none" stroke="#000000" cx="1018.6775" cy="-242" rx="76.7985" ry="18"/>
<text text-anchor="middle" x="1018.6775" y="-237.8" font-family="Times,serif" font-size="14.00" fill="#000000">etc1_distracted 0.1</text>
</g>
<!-- n20 -->
<g id="node21" class="node">
<title>n20</title>
<polygon fill="none" stroke="#000000" points="997.4764,-188 773.8786,-188 773.8786,-152 997.4764,-152 997.4764,-188"/>
<text text-anchor="middle" x="885.6775" y="-165.8" font-family="Times,serif" font-size="14.00" fill="#000000">(frequently_distracted&#39; $8 $13 $2 $3)</text>
</g>
<!-- n5&#45;&gt;n20 -->
<g id="edge13" class="edge">
<title>n5&#45;&gt;n20</title>
<path fill="none" stroke="#000000" d="M987.8303,-225.3008C970.0764,-215.6896 947.509,-203.4727 928.1034,-192.9674"/>
<polygon fill="#000000" stroke="#000000" points="929.6135,-189.805 919.1531,-188.1222 926.281,-195.9608 929.6135,-189.805"/>
</g>
<!-- n6 -->
<g id="node7" class="node">
<title>n6</title>
<ellipse fill="none" stroke="#000000" cx="788.6775" cy="-314" rx="108.6547" ry="18"/>
<text text-anchor="middle" x="788.6775" y="-309.8" font-family="Times,serif" font-size="14.00" fill="#000000">etc1_events_at_location 0.1</text>
</g>
<!-- n16 -->
<g id="node17" class="node">
<title>n16</title>
<polygon fill="none" stroke="#000000" points="923.6189,-260 653.7361,-260 653.7361,-224 923.6189,-224 923.6189,-260"/>
<text text-anchor="middle" x="788.6775" y="-237.8" font-family="Times,serif" font-size="14.00" fill="#000000">(frequent_events_at_location&#39; $10 $11 $2 $3)</text>
</g>
<!-- n6&#45;&gt;n16 -->
<g id="edge5" class="edge">
<title>n6&#45;&gt;n16</title>
<path fill="none" stroke="#000000" d="M788.6775,-295.8314C788.6775,-288.131 788.6775,-278.9743 788.6775,-270.4166"/>
<polygon fill="#000000" stroke="#000000" points="792.1776,-270.4132 788.6775,-260.4133 785.1776,-270.4133 792.1776,-270.4132"/>
</g>
<!-- n7 -->
<g id="node8" class="node">
<title>n7</title>
<ellipse fill="none" stroke="#000000" cx="116.6775" cy="-170" rx="116.8553" ry="18"/>
<text text-anchor="middle" x="116.6775" y="-165.8" font-family="Times,serif" font-size="14.00" fill="#000000">etc1_frequently_late_train 0.1</text>
</g>
<!-- n22 -->
<g id="node23" class="node">
<title>n22</title>
<polygon fill="none" stroke="#000000" points="548.9179,-116 326.4371,-116 326.4371,-80 548.9179,-80 548.9179,-116"/>
<text text-anchor="middle" x="437.6775" y="-93.8" font-family="Times,serif" font-size="14.00" fill="#000000">(frequently_late_train&#39; $4 $13 $5 $3)</text>
</g>
<!-- n7&#45;&gt;n22 -->
<g id="edge18" class="edge">
<title>n7&#45;&gt;n22</title>
<path fill="none" stroke="#000000" d="M182.7997,-155.1689C230.3014,-144.5143 294.9089,-130.0229 347.1896,-118.2963"/>
<polygon fill="#000000" stroke="#000000" points="348.1449,-121.6691 357.1365,-116.0653 346.6129,-114.8388 348.1449,-121.6691"/>
</g>
<!-- n8 -->
<g id="node9" class="node">
<title>n8</title>
<ellipse fill="none" stroke="#000000" cx="1250.6775" cy="-314" rx="115.9036" ry="18"/>
<text text-anchor="middle" x="1250.6775" y="-309.8" font-family="Times,serif" font-size="14.00" fill="#000000">etc1_frequently_watching 0.1</text>
</g>
<!-- n18 -->
<g id="node19" class="node">
<title>n18</title>
<polygon fill="none" stroke="#000000" points="1379.3602,-260 1151.9948,-260 1151.9948,-224 1379.3602,-224 1379.3602,-260"/>
<text text-anchor="middle" x="1265.6775" y="-237.8" font-family="Times,serif" font-size="14.00" fill="#000000">(frequently_watching&#39; $1 $13 $11 $3)</text>
</g>
<!-- n8&#45;&gt;n18 -->
<g id="edge9" class="edge">
<title>n8&#45;&gt;n18</title>
<path fill="none" stroke="#000000" d="M1254.4626,-295.8314C1256.0669,-288.131 1257.9745,-278.9743 1259.7574,-270.4166"/>
<polygon fill="#000000" stroke="#000000" points="1263.2282,-270.9169 1261.8414,-260.4133 1256.3753,-269.4892 1263.2282,-270.9169"/>
</g>
<!-- n9 -->
<g id="node10" class="node">
<title>n9</title>
<ellipse fill="none" stroke="#000000" cx="1652.6775" cy="-314" rx="106.2664" ry="18"/>
<text text-anchor="middle" x="1652.6775" y="-309.8" font-family="Times,serif" font-size="14.00" fill="#000000">etc1_symbolic_of_love 0.1</text>
</g>
<!-- n19 -->
<g id="node20" class="node">
<title>n19</title>
<polygon fill="none" stroke="#000000" points="1635.1215,-260 1488.2335,-260 1488.2335,-224 1635.1215,-224 1635.1215,-260"/>
<text text-anchor="middle" x="1561.6775" y="-237.8" font-family="Times,serif" font-size="14.00" fill="#000000">(symbolic_of_love&#39; $9)</text>
</g>
<!-- n9&#45;&gt;n19 -->
<g id="edge11" class="edge">
<title>n9&#45;&gt;n19</title>
<path fill="none" stroke="#000000" d="M1630.1831,-296.2022C1618.7849,-287.1839 1604.7729,-276.0975 1592.3974,-266.3059"/>
<polygon fill="#000000" stroke="#000000" points="1594.5591,-263.5532 1584.5452,-260.0931 1590.2157,-269.0428 1594.5591,-263.5532"/>
</g>
<!-- n10 -->
<g id="node11" class="node">
<title>n10</title>
<ellipse fill="none" stroke="#000000" cx="1242.6775" cy="-98" rx="91.2721" ry="18"/>
<text text-anchor="middle" x="1242.6775" y="-93.8" font-family="Times,serif" font-size="14.00" fill="#000000">etc2_card_baseball 0.1</text>
</g>
<!-- n17 -->
<g id="node18" class="node">
<title>n17</title>
<polygon fill="none" stroke="#000000" points="1233.9508,-40 1131.4042,-40 1131.4042,-4 1233.9508,-4 1233.9508,-40"/>
<polygon fill="none" stroke="#000000" points="1237.9611,-44 1127.3939,-44 1127.3939,0 1237.9611,0 1237.9611,-44"/>
<text text-anchor="middle" x="1182.6775" y="-17.8" font-family="Times,serif" font-size="14.00" fill="#000000">(card_baseball)</text>
</g>
<!-- n10&#45;&gt;n17 -->
<g id="edge7" class="edge">
<title>n10&#45;&gt;n17</title>
<path fill="none" stroke="#000000" d="M1228.4583,-79.9891C1221.9185,-71.7053 1213.9799,-61.6498 1206.5623,-52.2541"/>
<polygon fill="#000000" stroke="#000000" points="1209.1697,-49.9083 1200.2261,-44.2282 1203.6755,-54.2458 1209.1697,-49.9083"/>
</g>
<!-- n11 -->
<g id="node12" class="node">
<title>n11</title>
<ellipse fill="none" stroke="#000000" cx="1669.6775" cy="-98" rx="79.6713" ry="18"/>
<text text-anchor="middle" x="1669.6775" y="-93.8" font-family="Times,serif" font-size="14.00" fill="#000000">etc2_card_heart 0.1</text>
</g>
<!-- n21 -->
<g id="node22" class="node">
<title>n21</title>
<polygon fill="none" stroke="#000000" points="1658.0548,-40 1573.3002,-40 1573.3002,-4 1658.0548,-4 1658.0548,-40"/>
<polygon fill="none" stroke="#000000" points="1662.0719,-44 1569.2831,-44 1569.2831,0 1662.0719,0 1662.0719,-44"/>
<text text-anchor="middle" x="1615.6775" y="-17.8" font-family="Times,serif" font-size="14.00" fill="#000000">(card_heart)</text>
</g>
<!-- n11&#45;&gt;n21 -->
<g id="edge16" class="edge">
<title>n11&#45;&gt;n21</title>
<path fill="none" stroke="#000000" d="M1656.8803,-79.9891C1651.0538,-71.7889 1643.9939,-61.8527 1637.3762,-52.539"/>
<polygon fill="#000000" stroke="#000000" points="1640.1165,-50.3528 1631.4712,-44.2282 1634.4102,-54.4073 1640.1165,-50.3528"/>
</g>
<!-- n12&#45;&gt;n22 -->
<g id="edge19" class="edge">
<title>n12&#45;&gt;n22</title>
<path fill="none" stroke="#000000" d="M365.1547,-151.8314C377.217,-142.8779 391.9315,-131.9558 404.9461,-122.2955"/>
<polygon fill="#000000" stroke="#000000" points="407.2645,-124.9335 413.2081,-116.1628 403.0923,-119.3127 407.2645,-124.9335"/>
</g>
<!-- n13&#45;&gt;n16 -->
<g id="edge6" class="edge">
<title>n13&#45;&gt;n16</title>
<path fill="none" stroke="#000000" d="M964.6804,-295.9243C932.1355,-285.9531 891.5514,-273.5188 857.5586,-263.104"/>
<polygon fill="#000000" stroke="#000000" points="858.2855,-259.6662 847.6989,-260.0831 856.2348,-266.3591 858.2855,-259.6662"/>
</g>
<!-- n13&#45;&gt;n17 -->
<g id="edge8" class="edge">
<title>n13&#45;&gt;n17</title>
<path fill="none" stroke="#000000" d="M1063.3275,-295.8759C1078.4242,-287.084 1094.4401,-275.1119 1104.6775,-260 1150.5353,-192.3073 1110.3934,-155.1197 1142.6775,-80 1146.7707,-70.4758 1152.5376,-60.901 1158.4215,-52.353"/>
<polygon fill="#000000" stroke="#000000" points="1161.2957,-54.351 1164.2867,-44.1871 1155.6102,-50.2673 1161.2957,-54.351"/>
</g>
<!-- n14&#45;&gt;n18 -->
<g id="edge10" class="edge">
<title>n14&#45;&gt;n18</title>
<path fill="none" stroke="#000000" d="M1408.4801,-295.8314C1382.4809,-286.0306 1350.2239,-273.8709 1322.9494,-263.5894"/>
<polygon fill="#000000" stroke="#000000" points="1324.1201,-260.2904 1313.5283,-260.038 1321.6509,-266.8404 1324.1201,-260.2904"/>
</g>
<!-- n14&#45;&gt;n19 -->
<g id="edge12" class="edge">
<title>n14&#45;&gt;n19</title>
<path fill="none" stroke="#000000" d="M1483.1734,-295.8314C1496.3549,-286.7927 1512.4622,-275.7476 1526.6486,-266.0198"/>
<polygon fill="#000000" stroke="#000000" points="1528.9221,-268.7047 1535.19,-260.1628 1524.9634,-262.9316 1528.9221,-268.7047"/>
</g>
<!-- n15&#45;&gt;n22 -->
<g id="edge20" class="edge">
<title>n15&#45;&gt;n22</title>
<path fill="none" stroke="#000000" d="M510.2003,-151.8314C498.138,-142.8779 483.4235,-131.9558 470.4089,-122.2955"/>
<polygon fill="#000000" stroke="#000000" points="472.2627,-119.3127 462.1469,-116.1628 468.0905,-124.9335 472.2627,-119.3127"/>
</g>
<!-- n16&#45;&gt;n20 -->
<g id="edge14" class="edge">
<title>n16&#45;&gt;n20</title>
<path fill="none" stroke="#000000" d="M813.1547,-223.8314C825.217,-214.8779 839.9315,-203.9558 852.9461,-194.2955"/>
<polygon fill="#000000" stroke="#000000" points="855.2645,-196.9335 861.2081,-188.1628 851.0923,-191.3127 855.2645,-196.9335"/>
</g>
<!-- n18&#45;&gt;n20 -->
<g id="edge15" class="edge">
<title>n18&#45;&gt;n20</title>
<path fill="none" stroke="#000000" d="M1170.2779,-223.9243C1115.6286,-213.5697 1046.9608,-200.5589 990.7677,-189.9118"/>
<polygon fill="#000000" stroke="#000000" points="991.2634,-186.4436 980.7867,-188.0207 989.9603,-193.3212 991.2634,-186.4436"/>
</g>
<!-- n19&#45;&gt;n21 -->
<g id="edge17" class="edge">
<title>n19&#45;&gt;n21</title>
<path fill="none" stroke="#000000" d="M1561.3362,-223.9564C1561.2934,-193.4475 1563.5255,-130.0995 1580.6775,-80 1583.9006,-70.5857 1588.8163,-61.0588 1593.9538,-52.5221"/>
<polygon fill="#000000" stroke="#000000" points="1596.9374,-54.3526 1599.3263,-44.0306 1591.0219,-50.6099 1596.9374,-54.3526"/>
</g>
<!-- n20&#45;&gt;n22 -->
<g id="edge21" class="edge">
<title>n20&#45;&gt;n22</title>
<path fill="none" stroke="#000000" d="M773.7838,-152.0171C708.4576,-141.5182 625.9919,-128.2648 559.0953,-117.5136"/>
<polygon fill="#000000" stroke="#000000" points="559.3491,-114.0095 548.9204,-115.8783 558.2383,-120.9208 559.3491,-114.0095"/>
</g>
<!-- n23 -->
<g id="node24" class="node">
<title>n23</title>
<polygon fill="none" stroke="#000000" points="484.6072,-40 390.7478,-40 390.7478,-4 484.6072,-4 484.6072,-40"/>
<text text-anchor="middle" x="437.6775" y="-17.8" font-family="Times,serif" font-size="14.00" fill="#000000">(train&#39; ?e $13)</text>
</g>
<!-- n22&#45;&gt;n23 -->
<g id="edge22" class="edge">
<title>n22&#45;&gt;n23</title>
<path fill="none" stroke="#000000" d="M437.6775,-79.9891C437.6775,-71.1566 437.6775,-60.3099 437.6775,-50.3965"/>
<polygon fill="#000000" stroke="#000000" points="441.1776,-50.145 437.6775,-40.145 434.1776,-50.1451 441.1776,-50.145"/>
</g>
<!-- n22&#45;&gt;n24 -->
<g id="edge24" class="edge">
<title>n22&#45;&gt;n24</title>
<path fill="none" stroke="#000000" d="M475.3583,-79.9891C495.3664,-70.4254 520.3148,-58.5004 542.3759,-47.9555"/>
<polygon fill="#000000" stroke="#000000" points="544.1181,-51.0021 551.631,-43.5317 541.0993,-44.6864 544.1181,-51.0021"/>
</g>
</g>
</svg>
