<?xml version="1.0" encoding="UTF-8" standalone="no"?>
<!DOCTYPE svg PUBLIC "-//W3C//DTD SVG 1.1//EN"
 "http://www.w3.org/Graphics/SVG/1.1/DTD/svg11.dtd">
<!-- Generated by graphviz version 2.40.1 (20161225.0304)
 -->
<!-- Title: proof Pages: 1 -->
<svg width="1197pt" height="484pt"
 viewBox="0.00 0.00 1196.55 484.00" xmlns="http://www.w3.org/2000/svg" xmlns:xlink="http://www.w3.org/1999/xlink">
<g id="graph0" class="graph" transform="scale(1 1) rotate(0) translate(4 480)">
<title>proof</title>
<polygon fill="#ffffff" stroke="transparent" points="-4,4 -4,-480 1192.5508,-480 1192.5508,4 -4,4"/>
<!-- n0 -->
<g id="node1" class="node">
<title>n0</title>
<ellipse fill="none" stroke="#000000" cx="694.8355" cy="-458" rx="95.1395" ry="18"/>
<text text-anchor="middle" x="694.8355" y="-453.8" font-family="Times,serif" font-size="14.00" fill="#000000">etc0_baseball_game 0.1</text>
</g>
<!-- n11 -->
<g id="node12" class="node">
<title>n11</title>
<polygon fill="none" stroke="#000000" points="758.8695,-404 630.8014,-404 630.8014,-368 758.8695,-368 758.8695,-404"/>
<text text-anchor="middle" x="694.8355" y="-381.8" font-family="Times,serif" font-size="14.00" fill="#000000">(baseball_game&#39; $9)</text>
</g>
<!-- n0&#45;&gt;n11 -->
<g id="edge1" class="edge">
<title>n0&#45;&gt;n11</title>
<path fill="none" stroke="#000000" d="M694.8355,-439.8314C694.8355,-432.131 694.8355,-422.9743 694.8355,-414.4166"/>
<polygon fill="#000000" stroke="#000000" points="698.3356,-414.4132 694.8355,-404.4133 691.3356,-414.4133 698.3356,-414.4132"/>
</g>
<!-- n1 -->
<g id="node2" class="node">
<title>n1</title>
<ellipse fill="none" stroke="#000000" cx="248.8355" cy="-386" rx="139.5159" ry="18"/>
<text text-anchor="middle" x="248.8355" y="-381.8" font-family="Times,serif" font-size="14.00" fill="#000000">etc0_execution_schedule_failure 0.1</text>
</g>
<!-- n12 -->
<g id="node13" class="node">
<title>n12</title>
<polygon fill="none" stroke="#000000" points="429.1139,-332 212.557,-332 212.557,-296 429.1139,-296 429.1139,-332"/>
<text text-anchor="middle" x="320.8355" y="-309.8" font-family="Times,serif" font-size="14.00" fill="#000000">(execution_schedule_failure&#39; $2 $7)</text>
</g>
<!-- n1&#45;&gt;n12 -->
<g id="edge2" class="edge">
<title>n1&#45;&gt;n12</title>
<path fill="none" stroke="#000000" d="M267.0041,-367.8314C275.5507,-359.2848 285.8912,-348.9443 295.2156,-339.6198"/>
<polygon fill="#000000" stroke="#000000" points="297.826,-341.9592 302.4222,-332.4133 292.8762,-337.0095 297.826,-341.9592"/>
</g>
<!-- n2 -->
<g id="node3" class="node">
<title>n2</title>
<ellipse fill="none" stroke="#000000" cx="1106.8355" cy="-458" rx="75.3621" ry="18"/>
<text text-anchor="middle" x="1106.8355" y="-453.8" font-family="Times,serif" font-size="14.00" fill="#000000">etc0_train_trip 0.1</text>
</g>
<!-- n13 -->
<g id="node14" class="node">
<title>n13</title>
<polygon fill="none" stroke="#000000" points="1188.7667,-404 1024.9042,-404 1024.9042,-368 1188.7667,-368 1188.7667,-404"/>
<text text-anchor="middle" x="1106.8355" y="-381.8" font-family="Times,serif" font-size="14.00" fill="#000000">(train_trip&#39; $12 $8 $11 $7)</text>
</g>
<!-- n2&#45;&gt;n13 -->
<g id="edge3" class="edge">
<title>n2&#45;&gt;n13</title>
<path fill="none" stroke="#000000" d="M1106.8355,-439.8314C1106.8355,-432.131 1106.8355,-422.9743 1106.8355,-414.4166"/>
<polygon fill="#000000" stroke="#000000" points="1110.3356,-414.4132 1106.8355,-404.4133 1103.3356,-414.4133 1110.3356,-414.4132"/>
</g>
<!-- n3 -->
<g id="node4" class="node">
<title>n3</title>
<ellipse fill="none" stroke="#000000" cx="254.8355" cy="-242" rx="79.6713" ry="18"/>
<text text-anchor="middle" x="254.8355" y="-237.8" font-family="Times,serif" font-size="14.00" fill="#000000">etc1_heartbreak 0.1</text>
</g>
<!-- n19 -->
<g id="node20" class="node">
<title>n19</title>
<polygon fill="none" stroke="#000000" points="403.7515,-188 281.9194,-188 281.9194,-152 403.7515,-152 403.7515,-188"/>
<text text-anchor="middle" x="342.8355" y="-165.8" font-family="Times,serif" font-size="14.00" fill="#000000">(heartbreak&#39; $4 $8)</text>
</g>
<!-- n3&#45;&gt;n19 -->
<g id="edge16" class="edge">
<title>n3&#45;&gt;n19</title>
<path fill="none" stroke="#000000" d="M276.1378,-224.5708C287.1314,-215.576 300.7283,-204.4513 312.7718,-194.5976"/>
<polygon fill="#000000" stroke="#000000" points="315.2871,-197.0619 320.8103,-188.0206 310.8544,-191.6441 315.2871,-197.0619"/>
</g>
<!-- n4 -->
<g id="node5" class="node">
<title>n4</title>
<ellipse fill="none" stroke="#000000" cx="103.8355" cy="-314" rx="90.8222" ry="18"/>
<text text-anchor="middle" x="103.8355" y="-309.8" font-family="Times,serif" font-size="14.00" fill="#000000">etc1_missed_event 0.1</text>
</g>
<!-- n18 -->
<g id="node19" class="node">
<title>n18</title>
<polygon fill="none" stroke="#000000" points="508.8898,-260 352.7811,-260 352.7811,-224 508.8898,-224 508.8898,-260"/>
<text text-anchor="middle" x="430.8355" y="-237.8" font-family="Times,serif" font-size="14.00" fill="#000000">(missed_event&#39; $6 $8 $5)</text>
</g>
<!-- n4&#45;&gt;n18 -->
<g id="edge12" class="edge">
<title>n4&#45;&gt;n18</title>
<path fill="none" stroke="#000000" d="M164.5753,-300.6261C214.6686,-289.5964 286.4043,-273.8014 342.7973,-261.3846"/>
<polygon fill="#000000" stroke="#000000" points="343.7677,-264.7548 352.7811,-259.1863 342.2624,-257.9186 343.7677,-264.7548"/>
</g>
<!-- n5 -->
<g id="node6" class="node">
<title>n5</title>
<ellipse fill="none" stroke="#000000" cx="509.8355" cy="-386" rx="103.0992" ry="18"/>
<text text-anchor="middle" x="509.8355" y="-381.8" font-family="Times,serif" font-size="14.00" fill="#000000">etc1_scheduled_event&#39; 0.1</text>
</g>
<!-- n14 -->
<g id="node15" class="node">
<title>n14</title>
<polygon fill="none" stroke="#000000" points="634.4664,-332 447.2046,-332 447.2046,-296 634.4664,-296 634.4664,-332"/>
<text text-anchor="middle" x="540.8355" y="-309.8" font-family="Times,serif" font-size="14.00" fill="#000000">(scheduled_event&#39; $10 $5 $11)</text>
</g>
<!-- n5&#45;&gt;n14 -->
<g id="edge4" class="edge">
<title>n5&#45;&gt;n14</title>
<path fill="none" stroke="#000000" d="M517.6581,-367.8314C521.0464,-359.9617 525.0896,-350.5712 528.8431,-341.8533"/>
<polygon fill="#000000" stroke="#000000" points="532.1676,-342.9822 532.9075,-332.4133 525.7382,-340.214 532.1676,-342.9822"/>
</g>
<!-- n6 -->
<g id="node7" class="node">
<title>n6</title>
<ellipse fill="none" stroke="#000000" cx="892.8355" cy="-386" rx="113.9829" ry="18"/>
<text text-anchor="middle" x="892.8355" y="-381.8" font-family="Times,serif" font-size="14.00" fill="#000000">etc1_scheduled_transport 0.1</text>
</g>
<!-- n16 -->
<g id="node17" class="node">
<title>n16</title>
<polygon fill="none" stroke="#000000" points="1001.4146,-332 784.2564,-332 784.2564,-296 1001.4146,-296 1001.4146,-332"/>
<text text-anchor="middle" x="892.8355" y="-309.8" font-family="Times,serif" font-size="14.00" fill="#000000">(scheduled_transport&#39; $1 $8 $11 $7)</text>
</g>
<!-- n6&#45;&gt;n16 -->
<g id="edge8" class="edge">
<title>n6&#45;&gt;n16</title>
<path fill="none" stroke="#000000" d="M892.8355,-367.8314C892.8355,-360.131 892.8355,-350.9743 892.8355,-342.4166"/>
<polygon fill="#000000" stroke="#000000" points="896.3356,-342.4132 892.8355,-332.4133 889.3356,-342.4133 896.3356,-342.4132"/>
</g>
<!-- n7 -->
<g id="node8" class="node">
<title>n7</title>
<ellipse fill="none" stroke="#000000" cx="812.8355" cy="-98" rx="91.2721" ry="18"/>
<text text-anchor="middle" x="812.8355" y="-93.8" font-family="Times,serif" font-size="14.00" fill="#000000">etc2_card_baseball 0.1</text>
</g>
<!-- n15 -->
<g id="node16" class="node">
<title>n15</title>
<polygon fill="none" stroke="#000000" points="804.1087,-40 701.5622,-40 701.5622,-4 804.1087,-4 804.1087,-40"/>
<polygon fill="none" stroke="#000000" points="808.119,-44 697.5519,-44 697.5519,0 808.119,0 808.119,-44"/>
<text text-anchor="middle" x="752.8355" y="-17.8" font-family="Times,serif" font-size="14.00" fill="#000000">(card_baseball)</text>
</g>
<!-- n7&#45;&gt;n15 -->
<g id="edge6" class="edge">
<title>n7&#45;&gt;n15</title>
<path fill="none" stroke="#000000" d="M798.6163,-79.9891C792.0765,-71.7053 784.1379,-61.6498 776.7203,-52.2541"/>
<polygon fill="#000000" stroke="#000000" points="779.3276,-49.9083 770.3841,-44.2282 773.8334,-54.2458 779.3276,-49.9083"/>
</g>
<!-- n8 -->
<g id="node9" class="node">
<title>n8</title>
<ellipse fill="none" stroke="#000000" cx="79.8355" cy="-98" rx="79.6713" ry="18"/>
<text text-anchor="middle" x="79.8355" y="-93.8" font-family="Times,serif" font-size="14.00" fill="#000000">etc2_card_heart 0.1</text>
</g>
<!-- n21 -->
<g id="node22" class="node">
<title>n21</title>
<polygon fill="none" stroke="#000000" points="208.2128,-40 123.4582,-40 123.4582,-4 208.2128,-4 208.2128,-40"/>
<polygon fill="none" stroke="#000000" points="212.2299,-44 119.4411,-44 119.4411,0 212.2299,0 212.2299,-44"/>
<text text-anchor="middle" x="165.8355" y="-17.8" font-family="Times,serif" font-size="14.00" fill="#000000">(card_heart)</text>
</g>
<!-- n8&#45;&gt;n21 -->
<g id="edge20" class="edge">
<title>n8&#45;&gt;n21</title>
<path fill="none" stroke="#000000" d="M99.7818,-80.373C109.6995,-71.6085 121.9402,-60.7911 133.1789,-50.8593"/>
<polygon fill="#000000" stroke="#000000" points="135.5828,-53.4058 140.7585,-44.1611 130.9474,-48.1604 135.5828,-53.4058"/>
</g>
<!-- n9 -->
<g id="node10" class="node">
<title>n9</title>
<ellipse fill="none" stroke="#000000" cx="157.8355" cy="-170" rx="106.2664" ry="18"/>
<text text-anchor="middle" x="157.8355" y="-165.8" font-family="Times,serif" font-size="14.00" fill="#000000">etc2_symbolic_of_love 0.1</text>
</g>
<!-- n20 -->
<g id="node21" class="node">
<title>n20</title>
<polygon fill="none" stroke="#000000" points="324.2795,-116 177.3914,-116 177.3914,-80 324.2795,-80 324.2795,-116"/>
<text text-anchor="middle" x="250.8355" y="-93.8" font-family="Times,serif" font-size="14.00" fill="#000000">(symbolic_of_love&#39; $3)</text>
</g>
<!-- n9&#45;&gt;n20 -->
<g id="edge18" class="edge">
<title>n9&#45;&gt;n20</title>
<path fill="none" stroke="#000000" d="M180.8242,-152.2022C192.4729,-143.1839 206.7929,-132.0975 219.4404,-122.3059"/>
<polygon fill="#000000" stroke="#000000" points="221.7006,-124.9824 227.4652,-116.0931 217.4153,-119.4473 221.7006,-124.9824"/>
</g>
<!-- n10 -->
<g id="node11" class="node">
<title>n10</title>
<ellipse fill="none" stroke="#000000" cx="1000.8355" cy="-98" rx="78.2349" ry="18"/>
<text text-anchor="middle" x="1000.8355" y="-93.8" font-family="Times,serif" font-size="14.00" fill="#000000">etc4_card_train 0.1</text>
</g>
<!-- n17 -->
<g id="node18" class="node">
<title>n17</title>
<polygon fill="none" stroke="#000000" points="1094.9018,-40 1012.7692,-40 1012.7692,-4 1094.9018,-4 1094.9018,-40"/>
<polygon fill="none" stroke="#000000" points="1098.9048,-44 1008.7661,-44 1008.7661,0 1098.9048,0 1098.9048,-44"/>
<text text-anchor="middle" x="1053.8355" y="-17.8" font-family="Times,serif" font-size="14.00" fill="#000000">(card_train)</text>
</g>
<!-- n10&#45;&gt;n17 -->
<g id="edge10" class="edge">
<title>n10&#45;&gt;n17</title>
<path fill="none" stroke="#000000" d="M1013.3957,-79.9891C1019.1143,-71.7889 1026.0434,-61.8527 1032.5386,-52.539"/>
<polygon fill="#000000" stroke="#000000" points="1035.4849,-54.4327 1038.3342,-44.2282 1029.7432,-50.4286 1035.4849,-54.4327"/>
</g>
<!-- n11&#45;&gt;n14 -->
<g id="edge5" class="edge">
<title>n11&#45;&gt;n14</title>
<path fill="none" stroke="#000000" d="M655.9748,-367.8314C635.5613,-358.2874 610.3632,-346.5065 588.7495,-336.4013"/>
<polygon fill="#000000" stroke="#000000" points="589.9579,-333.1027 579.4167,-332.038 586.9932,-339.4439 589.9579,-333.1027"/>
</g>
<!-- n11&#45;&gt;n15 -->
<g id="edge7" class="edge">
<title>n11&#45;&gt;n15</title>
<path fill="none" stroke="#000000" d="M694.6283,-367.8149C694.3354,-340.4989 693.8355,-287.2511 693.8355,-242 693.8355,-242 693.8355,-242 693.8355,-170 693.8355,-129.1184 696.6934,-117.5599 712.8355,-80 716.9287,-70.4758 722.6956,-60.901 728.5795,-52.353"/>
<polygon fill="#000000" stroke="#000000" points="731.4537,-54.351 734.4447,-44.1871 725.7682,-50.2673 731.4537,-54.351"/>
</g>
<!-- n12&#45;&gt;n18 -->
<g id="edge13" class="edge">
<title>n12&#45;&gt;n18</title>
<path fill="none" stroke="#000000" d="M348.5931,-295.8314C362.5325,-286.7074 379.5953,-275.539 394.5586,-265.7449"/>
<polygon fill="#000000" stroke="#000000" points="396.6365,-268.5679 403.0867,-260.1628 392.8029,-262.711 396.6365,-268.5679"/>
</g>
<!-- n13&#45;&gt;n16 -->
<g id="edge9" class="edge">
<title>n13&#45;&gt;n16</title>
<path fill="none" stroke="#000000" d="M1053.1105,-367.9243C1023.7282,-358.0387 987.1503,-345.7321 956.3597,-335.3726"/>
<polygon fill="#000000" stroke="#000000" points="957.1767,-331.9548 946.5826,-332.0831 954.9444,-338.5893 957.1767,-331.9548"/>
</g>
<!-- n13&#45;&gt;n17 -->
<g id="edge11" class="edge">
<title>n13&#45;&gt;n17</title>
<path fill="none" stroke="#000000" d="M1106.8355,-367.8146C1106.8355,-340.4983 1106.8355,-287.25 1106.8355,-242 1106.8355,-242 1106.8355,-242 1106.8355,-170 1106.8355,-129.1184 1102.586,-118.1278 1087.8355,-80 1084.241,-70.7088 1079.264,-61.1659 1074.2258,-52.5718"/>
<polygon fill="#000000" stroke="#000000" points="1077.2011,-50.7282 1069.0088,-44.0098 1071.2233,-54.3706 1077.2011,-50.7282"/>
</g>
<!-- n14&#45;&gt;n18 -->
<g id="edge14" class="edge">
<title>n14&#45;&gt;n18</title>
<path fill="none" stroke="#000000" d="M513.0778,-295.8314C499.1384,-286.7074 482.0757,-275.539 467.1123,-265.7449"/>
<polygon fill="#000000" stroke="#000000" points="468.8681,-262.711 458.5842,-260.1628 465.0345,-268.5679 468.8681,-262.711"/>
</g>
<!-- n16&#45;&gt;n18 -->
<g id="edge15" class="edge">
<title>n16&#45;&gt;n18</title>
<path fill="none" stroke="#000000" d="M784.2251,-297.0737C703.4296,-284.4822 594.5477,-267.5136 519.0893,-255.7538"/>
<polygon fill="#000000" stroke="#000000" points="519.5529,-252.2839 509.1332,-254.2022 518.4749,-259.2004 519.5529,-252.2839"/>
</g>
<!-- n18&#45;&gt;n19 -->
<g id="edge17" class="edge">
<title>n18&#45;&gt;n19</title>
<path fill="none" stroke="#000000" d="M408.6294,-223.8314C397.7905,-214.9632 384.5911,-204.1637 372.8677,-194.5718"/>
<polygon fill="#000000" stroke="#000000" points="374.9904,-191.7864 365.0345,-188.1628 370.5577,-197.2041 374.9904,-191.7864"/>
</g>
<!-- n19&#45;&gt;n20 -->
<g id="edge19" class="edge">
<title>n19&#45;&gt;n20</title>
<path fill="none" stroke="#000000" d="M319.62,-151.8314C308.2885,-142.9632 294.4891,-132.1637 282.2328,-122.5718"/>
<polygon fill="#000000" stroke="#000000" points="284.0757,-119.5697 274.0435,-116.1628 279.7615,-125.0822 284.0757,-119.5697"/>
</g>
<!-- n20&#45;&gt;n21 -->
<g id="edge21" class="edge">
<title>n20&#45;&gt;n21</title>
<path fill="none" stroke="#000000" d="M230.6917,-79.9891C221.0525,-71.3706 209.2686,-60.8343 198.4023,-51.1186"/>
<polygon fill="#000000" stroke="#000000" points="200.4836,-48.2845 190.696,-44.2282 195.8178,-53.5028 200.4836,-48.2845"/>
</g>
</g>
</svg>
