<?xml version="1.0" encoding="UTF-8" standalone="no"?>
<!DOCTYPE svg PUBLIC "-//W3C//DTD SVG 1.1//EN"
 "http://www.w3.org/Graphics/SVG/1.1/DTD/svg11.dtd">
<!-- Generated by graphviz version 2.40.1 (20161225.0304)
 -->
<!-- Title: proof Pages: 1 -->
<svg width="890pt" height="340pt"
 viewBox="0.00 0.00 890.50 340.00" xmlns="http://www.w3.org/2000/svg" xmlns:xlink="http://www.w3.org/1999/xlink">
<g id="graph0" class="graph" transform="scale(1 1) rotate(0) translate(4 336)">
<title>proof</title>
<polygon fill="#ffffff" stroke="transparent" points="-4,4 -4,-336 886.4979,-336 886.4979,4 -4,4"/>
<!-- n0 -->
<g id="node1" class="node">
<title>n0</title>
<ellipse fill="none" stroke="#000000" cx="219.1306" cy="-314" rx="94.6982" ry="18"/>
<text text-anchor="middle" x="219.1306" y="-309.8" font-family="Times,serif" font-size="14.00" fill="#000000">etc0_playing_sports 0.1</text>
</g>
<!-- n7 -->
<g id="node8" class="node">
<title>n7</title>
<polygon fill="none" stroke="#000000" points="291.9189,-260 146.3422,-260 146.3422,-224 291.9189,-224 291.9189,-260"/>
<text text-anchor="middle" x="219.1306" y="-237.8" font-family="Times,serif" font-size="14.00" fill="#000000">(playing_sports&#39; $1 $3)</text>
</g>
<!-- n0&#45;&gt;n7 -->
<g id="edge1" class="edge">
<title>n0&#45;&gt;n7</title>
<path fill="none" stroke="#000000" d="M219.1306,-295.8314C219.1306,-288.131 219.1306,-278.9743 219.1306,-270.4166"/>
<polygon fill="#000000" stroke="#000000" points="222.6307,-270.4132 219.1306,-260.4133 215.6307,-270.4133 222.6307,-270.4132"/>
</g>
<!-- n1 -->
<g id="node2" class="node">
<title>n1</title>
<ellipse fill="none" stroke="#000000" cx="64.1306" cy="-242" rx="64.2614" ry="18"/>
<text text-anchor="middle" x="64.1306" y="-237.8" font-family="Times,serif" font-size="14.00" fill="#000000">etc1_at_bat 0.1</text>
</g>
<!-- n8 -->
<g id="node9" class="node">
<title>n8</title>
<polygon fill="none" stroke="#000000" points="159.6843,-188 62.5768,-188 62.5768,-152 159.6843,-152 159.6843,-188"/>
<text text-anchor="middle" x="111.1306" y="-165.8" font-family="Times,serif" font-size="14.00" fill="#000000">(at_bat&#39; $4 $3)</text>
</g>
<!-- n1&#45;&gt;n8 -->
<g id="edge2" class="edge">
<title>n1&#45;&gt;n8</title>
<path fill="none" stroke="#000000" d="M75.7485,-224.2022C81.187,-215.871 87.7775,-205.7748 93.7895,-196.565"/>
<polygon fill="#000000" stroke="#000000" points="96.7843,-198.3801 99.3198,-188.0931 90.9227,-194.5537 96.7843,-198.3801"/>
</g>
<!-- n2 -->
<g id="node3" class="node">
<title>n2</title>
<ellipse fill="none" stroke="#000000" cx="230.1306" cy="-98" rx="91.2721" ry="18"/>
<text text-anchor="middle" x="230.1306" y="-93.8" font-family="Times,serif" font-size="14.00" fill="#000000">etc1_card_baseball 0.1</text>
</g>
<!-- n10 -->
<g id="node11" class="node">
<title>n10</title>
<polygon fill="none" stroke="#000000" points="263.4038,-40 160.8573,-40 160.8573,-4 263.4038,-4 263.4038,-40"/>
<polygon fill="none" stroke="#000000" points="267.4141,-44 156.847,-44 156.847,0 267.4141,0 267.4141,-44"/>
<text text-anchor="middle" x="212.1306" y="-17.8" font-family="Times,serif" font-size="14.00" fill="#000000">(card_baseball)</text>
</g>
<!-- n2&#45;&gt;n10 -->
<g id="edge6" class="edge">
<title>n2&#45;&gt;n10</title>
<path fill="none" stroke="#000000" d="M225.8648,-79.9891C224.0218,-72.2073 221.8084,-62.8621 219.7022,-53.9691"/>
<polygon fill="#000000" stroke="#000000" points="223.1057,-53.1524 217.3951,-44.2282 216.2941,-54.7657 223.1057,-53.1524"/>
</g>
<!-- n3 -->
<g id="node4" class="node">
<title>n3</title>
<ellipse fill="none" stroke="#000000" cx="480.1306" cy="-98" rx="79.6713" ry="18"/>
<text text-anchor="middle" x="480.1306" y="-93.8" font-family="Times,serif" font-size="14.00" fill="#000000">etc1_card_heart 0.1</text>
</g>
<!-- n11 -->
<g id="node12" class="node">
<title>n11</title>
<polygon fill="none" stroke="#000000" points="432.5078,-40 347.7533,-40 347.7533,-4 432.5078,-4 432.5078,-40"/>
<polygon fill="none" stroke="#000000" points="436.5249,-44 343.7362,-44 343.7362,0 436.5249,0 436.5249,-44"/>
<text text-anchor="middle" x="390.1306" y="-17.8" font-family="Times,serif" font-size="14.00" fill="#000000">(card_heart)</text>
</g>
<!-- n3&#45;&gt;n11 -->
<g id="edge8" class="edge">
<title>n3&#45;&gt;n11</title>
<path fill="none" stroke="#000000" d="M459.2565,-80.373C448.8775,-71.6085 436.0674,-60.7911 424.3061,-50.8593"/>
<polygon fill="#000000" stroke="#000000" points="426.2724,-47.9388 416.3739,-44.1611 421.7561,-53.287 426.2724,-47.9388"/>
</g>
<!-- n4 -->
<g id="node5" class="node">
<title>n4</title>
<ellipse fill="none" stroke="#000000" cx="804.1306" cy="-98" rx="78.2349" ry="18"/>
<text text-anchor="middle" x="804.1306" y="-93.8" font-family="Times,serif" font-size="14.00" fill="#000000">etc1_card_train 0.1</text>
</g>
<!-- n13 -->
<g id="node14" class="node">
<title>n13</title>
<polygon fill="none" stroke="#000000" points="764.1968,-40 682.0643,-40 682.0643,-4 764.1968,-4 764.1968,-40"/>
<polygon fill="none" stroke="#000000" points="768.1999,-44 678.0612,-44 678.0612,0 768.1999,0 768.1999,-44"/>
<text text-anchor="middle" x="723.1306" y="-17.8" font-family="Times,serif" font-size="14.00" fill="#000000">(card_train)</text>
</g>
<!-- n4&#45;&gt;n13 -->
<g id="edge12" class="edge">
<title>n4&#45;&gt;n13</title>
<path fill="none" stroke="#000000" d="M785.3439,-80.373C776.0926,-71.6928 764.6952,-60.999 754.1941,-51.1461"/>
<polygon fill="#000000" stroke="#000000" points="756.437,-48.4511 746.7496,-44.1611 751.6473,-53.5559 756.437,-48.4511"/>
</g>
<!-- n5 -->
<g id="node6" class="node">
<title>n5</title>
<ellipse fill="none" stroke="#000000" cx="643.1306" cy="-170" rx="84.5169" ry="18"/>
<text text-anchor="middle" x="643.1306" y="-165.8" font-family="Times,serif" font-size="14.00" fill="#000000">etc1_like_a_train 0.1</text>
</g>
<!-- n12 -->
<g id="node13" class="node">
<title>n12</title>
<polygon fill="none" stroke="#000000" points="707.8399,-116 578.4212,-116 578.4212,-80 707.8399,-80 707.8399,-116"/>
<text text-anchor="middle" x="643.1306" y="-93.8" font-family="Times,serif" font-size="14.00" fill="#000000">(like_a_train&#39; $5 $6)</text>
</g>
<!-- n5&#45;&gt;n12 -->
<g id="edge10" class="edge">
<title>n5&#45;&gt;n12</title>
<path fill="none" stroke="#000000" d="M643.1306,-151.8314C643.1306,-144.131 643.1306,-134.9743 643.1306,-126.4166"/>
<polygon fill="#000000" stroke="#000000" points="646.6307,-126.4132 643.1306,-116.4133 639.6307,-126.4133 646.6307,-126.4132"/>
</g>
<!-- n6 -->
<g id="node7" class="node">
<title>n6</title>
<ellipse fill="none" stroke="#000000" cx="396.1306" cy="-242" rx="86.9289" ry="18"/>
<text text-anchor="middle" x="396.1306" y="-237.8" font-family="Times,serif" font-size="14.00" fill="#000000">etc2_racing_heart 0.1</text>
</g>
<!-- n9 -->
<g id="node10" class="node">
<title>n9</title>
<polygon fill="none" stroke="#000000" points="450.4364,-188 317.8247,-188 317.8247,-152 450.4364,-152 450.4364,-188"/>
<text text-anchor="middle" x="384.1306" y="-165.8" font-family="Times,serif" font-size="14.00" fill="#000000">(racing_heart&#39; $6 $2)</text>
</g>
<!-- n6&#45;&gt;n9 -->
<g id="edge4" class="edge">
<title>n6&#45;&gt;n9</title>
<path fill="none" stroke="#000000" d="M393.1024,-223.8314C391.819,-216.131 390.2929,-206.9743 388.8667,-198.4166"/>
<polygon fill="#000000" stroke="#000000" points="392.2959,-197.7018 387.1994,-188.4133 385.3911,-198.8526 392.2959,-197.7018"/>
</g>
<!-- n7&#45;&gt;n8 -->
<g id="edge3" class="edge">
<title>n7&#45;&gt;n8</title>
<path fill="none" stroke="#000000" d="M191.8776,-223.8314C178.1916,-214.7074 161.4391,-203.539 146.7478,-193.7449"/>
<polygon fill="#000000" stroke="#000000" points="148.6368,-190.7977 138.3748,-188.1628 144.7538,-196.6221 148.6368,-190.7977"/>
</g>
<!-- n7&#45;&gt;n9 -->
<g id="edge5" class="edge">
<title>n7&#45;&gt;n9</title>
<path fill="none" stroke="#000000" d="M260.767,-223.8314C282.8348,-214.2018 310.1212,-202.295 333.4163,-192.1299"/>
<polygon fill="#000000" stroke="#000000" points="335.0279,-195.2454 342.7935,-188.038 332.2283,-188.8296 335.0279,-195.2454"/>
</g>
<!-- n8&#45;&gt;n10 -->
<g id="edge7" class="edge">
<title>n8&#45;&gt;n10</title>
<path fill="none" stroke="#000000" d="M111.1538,-151.9626C111.9916,-132.6648 115.7425,-101.8836 130.1306,-80 137.8392,-68.2755 148.8036,-58.1912 160.2154,-49.8742"/>
<polygon fill="#000000" stroke="#000000" points="162.3078,-52.6831 168.5639,-44.1324 158.3411,-46.9155 162.3078,-52.6831"/>
</g>
<!-- n9&#45;&gt;n11 -->
<g id="edge9" class="edge">
<title>n9&#45;&gt;n11</title>
<path fill="none" stroke="#000000" d="M384.8663,-151.8523C385.8473,-127.6539 387.6006,-84.4052 388.8127,-54.5078"/>
<polygon fill="#000000" stroke="#000000" points="392.3243,-54.2907 389.2323,-44.1571 385.33,-54.0071 392.3243,-54.2907"/>
</g>
<!-- n9&#45;&gt;n12 -->
<g id="edge11" class="edge">
<title>n9&#45;&gt;n12</title>
<path fill="none" stroke="#000000" d="M449.1529,-151.9243C485.3294,-141.8675 530.5189,-129.3052 568.1779,-118.8363"/>
<polygon fill="#000000" stroke="#000000" points="569.3843,-122.1337 578.0815,-116.0831 567.5094,-115.3894 569.3843,-122.1337"/>
</g>
<!-- n12&#45;&gt;n13 -->
<g id="edge13" class="edge">
<title>n12&#45;&gt;n13</title>
<path fill="none" stroke="#000000" d="M662.0894,-79.9891C671.1615,-71.3706 682.2523,-60.8343 692.4794,-51.1186"/>
<polygon fill="#000000" stroke="#000000" points="694.893,-53.6532 699.7324,-44.2282 690.0718,-48.5782 694.893,-53.6532"/>
</g>
</g>
</svg>
