<?xml version="1.0" encoding="UTF-8" standalone="no"?>
<!DOCTYPE svg PUBLIC "-//W3C//DTD SVG 1.1//EN"
 "http://www.w3.org/Graphics/SVG/1.1/DTD/svg11.dtd">
<!-- Generated by graphviz version 2.40.1 (20161225.0304)
 -->
<!-- Title: proof Pages: 1 -->
<svg width="958pt" height="484pt"
 viewBox="0.00 0.00 957.86 484.00" xmlns="http://www.w3.org/2000/svg" xmlns:xlink="http://www.w3.org/1999/xlink">
<g id="graph0" class="graph" transform="scale(1 1) rotate(0) translate(4 480)">
<title>proof</title>
<polygon fill="#ffffff" stroke="transparent" points="-4,4 -4,-480 953.8592,-480 953.8592,4 -4,4"/>
<!-- n0 -->
<g id="node1" class="node">
<title>n0</title>
<ellipse fill="none" stroke="#000000" cx="447.1306" cy="-458" rx="94.6723" ry="18"/>
<text text-anchor="middle" x="447.1306" y="-453.8" font-family="Times,serif" font-size="14.00" fill="#000000">etc0_birthday_party 0.1</text>
</g>
<!-- n11 -->
<g id="node12" class="node">
<title>n11</title>
<polygon fill="none" stroke="#000000" points="531.8856,-404 362.3755,-404 362.3755,-368 531.8856,-368 531.8856,-404"/>
<text text-anchor="middle" x="447.1306" y="-381.8" font-family="Times,serif" font-size="14.00" fill="#000000">(birthday_party&#39; $7 $11 $5)</text>
</g>
<!-- n0&#45;&gt;n11 -->
<g id="edge1" class="edge">
<title>n0&#45;&gt;n11</title>
<path fill="none" stroke="#000000" d="M447.1306,-439.8314C447.1306,-432.131 447.1306,-422.9743 447.1306,-414.4166"/>
<polygon fill="#000000" stroke="#000000" points="450.6307,-414.4132 447.1306,-404.4133 443.6307,-414.4133 450.6307,-414.4132"/>
</g>
<!-- n1 -->
<g id="node2" class="node">
<title>n1</title>
<ellipse fill="none" stroke="#000000" cx="891.1306" cy="-170" rx="58.9581" ry="18"/>
<text text-anchor="middle" x="891.1306" y="-165.8" font-family="Times,serif" font-size="14.00" fill="#000000">etc0_train 0.1</text>
</g>
<!-- n12 -->
<g id="node13" class="node">
<title>n12</title>
<polygon fill="none" stroke="#000000" points="935.1339,-116 847.1272,-116 847.1272,-80 935.1339,-80 935.1339,-116"/>
<text text-anchor="middle" x="891.1306" y="-93.8" font-family="Times,serif" font-size="14.00" fill="#000000">(train&#39; $7 $5)</text>
</g>
<!-- n1&#45;&gt;n12 -->
<g id="edge2" class="edge">
<title>n1&#45;&gt;n12</title>
<path fill="none" stroke="#000000" d="M891.1306,-151.8314C891.1306,-144.131 891.1306,-134.9743 891.1306,-126.4166"/>
<polygon fill="#000000" stroke="#000000" points="894.6307,-126.4132 891.1306,-116.4133 887.6307,-126.4133 894.6307,-126.4132"/>
</g>
<!-- n2 -->
<g id="node3" class="node">
<title>n2</title>
<ellipse fill="none" stroke="#000000" cx="224.1306" cy="-242" rx="93.1928" ry="18"/>
<text text-anchor="middle" x="224.1306" y="-237.8" font-family="Times,serif" font-size="14.00" fill="#000000">etc1_crafted_object 0.1</text>
</g>
<!-- n18 -->
<g id="node19" class="node">
<title>n18</title>
<polygon fill="none" stroke="#000000" points="154.5398,-188 11.7213,-188 11.7213,-152 154.5398,-152 154.5398,-188"/>
<text text-anchor="middle" x="83.1306" y="-165.8" font-family="Times,serif" font-size="14.00" fill="#000000">(crafted_object&#39; $2 $1)</text>
</g>
<!-- n2&#45;&gt;n18 -->
<g id="edge14" class="edge">
<title>n2&#45;&gt;n18</title>
<path fill="none" stroke="#000000" d="M191.0723,-225.1192C172.1551,-215.4593 148.1711,-203.2122 127.6179,-192.7169"/>
<polygon fill="#000000" stroke="#000000" points="128.9442,-189.4643 118.4464,-188.0336 125.7608,-195.6986 128.9442,-189.4643"/>
</g>
<!-- n3 -->
<g id="node4" class="node">
<title>n3</title>
<ellipse fill="none" stroke="#000000" cx="64.1306" cy="-314" rx="64.2614" ry="18"/>
<text text-anchor="middle" x="64.1306" y="-309.8" font-family="Times,serif" font-size="14.00" fill="#000000">etc1_pinata 0.1</text>
</g>
<!-- n15 -->
<g id="node16" class="node">
<title>n15</title>
<polygon fill="none" stroke="#000000" points="112.6843,-260 15.5768,-260 15.5768,-224 112.6843,-224 112.6843,-260"/>
<text text-anchor="middle" x="64.1306" y="-237.8" font-family="Times,serif" font-size="14.00" fill="#000000">(pinata&#39; $4 $1)</text>
</g>
<!-- n3&#45;&gt;n15 -->
<g id="edge7" class="edge">
<title>n3&#45;&gt;n15</title>
<path fill="none" stroke="#000000" d="M64.1306,-295.8314C64.1306,-288.131 64.1306,-278.9743 64.1306,-270.4166"/>
<polygon fill="#000000" stroke="#000000" points="67.6307,-270.4132 64.1306,-260.4133 60.6307,-270.4133 67.6307,-270.4132"/>
</g>
<!-- n4 -->
<g id="node5" class="node">
<title>n4</title>
<ellipse fill="none" stroke="#000000" cx="253.1306" cy="-386" rx="87.9066" ry="18"/>
<text text-anchor="middle" x="253.1306" y="-381.8" font-family="Times,serif" font-size="14.00" fill="#000000">etc1_pinata_game 0.1</text>
</g>
<!-- n13 -->
<g id="node14" class="node">
<title>n13</title>
<polygon fill="none" stroke="#000000" points="344.489,-332 161.7721,-332 161.7721,-296 344.489,-296 344.489,-332"/>
<text text-anchor="middle" x="253.1306" y="-309.8" font-family="Times,serif" font-size="14.00" fill="#000000">(pinata_game&#39; $10 $11 $1 $9)</text>
</g>
<!-- n4&#45;&gt;n13 -->
<g id="edge3" class="edge">
<title>n4&#45;&gt;n13</title>
<path fill="none" stroke="#000000" d="M253.1306,-367.8314C253.1306,-360.131 253.1306,-350.9743 253.1306,-342.4166"/>
<polygon fill="#000000" stroke="#000000" points="256.6307,-342.4132 253.1306,-332.4133 249.6307,-342.4133 256.6307,-342.4132"/>
</g>
<!-- n5 -->
<g id="node6" class="node">
<title>n5</title>
<ellipse fill="none" stroke="#000000" cx="630.1306" cy="-386" rx="77.7848" ry="18"/>
<text text-anchor="middle" x="630.1306" y="-381.8" font-family="Times,serif" font-size="14.00" fill="#000000">etc1_setting_of 0.1</text>
</g>
<!-- n14 -->
<g id="node15" class="node">
<title>n14</title>
<polygon fill="none" stroke="#000000" points="698.4708,-332 561.7903,-332 561.7903,-296 698.4708,-296 698.4708,-332"/>
<text text-anchor="middle" x="630.1306" y="-309.8" font-family="Times,serif" font-size="14.00" fill="#000000">(setting_of&#39; $6 $7 $5)</text>
</g>
<!-- n5&#45;&gt;n14 -->
<g id="edge5" class="edge">
<title>n5&#45;&gt;n14</title>
<path fill="none" stroke="#000000" d="M630.1306,-367.8314C630.1306,-360.131 630.1306,-350.9743 630.1306,-342.4166"/>
<polygon fill="#000000" stroke="#000000" points="633.6307,-342.4132 630.1306,-332.4133 626.6307,-342.4133 633.6307,-342.4132"/>
</g>
<!-- n6 -->
<g id="node7" class="node">
<title>n6</title>
<ellipse fill="none" stroke="#000000" cx="271.1306" cy="-170" rx="98.2713" ry="18"/>
<text text-anchor="middle" x="271.1306" y="-165.8" font-family="Times,serif" font-size="14.00" fill="#000000">etc1_shape_of_heart&#39; 0.1</text>
</g>
<!-- n20 -->
<g id="node21" class="node">
<title>n20</title>
<polygon fill="none" stroke="#000000" points="183.4953,-116 34.7658,-116 34.7658,-80 183.4953,-80 183.4953,-116"/>
<text text-anchor="middle" x="109.1306" y="-93.8" font-family="Times,serif" font-size="14.00" fill="#000000">(shape_of_heart&#39; $3 $1)</text>
</g>
<!-- n6&#45;&gt;n20 -->
<g id="edge18" class="edge">
<title>n6&#45;&gt;n20</title>
<path fill="none" stroke="#000000" d="M233.5573,-153.3008C211.443,-143.4722 183.1973,-130.9185 159.2089,-120.2571"/>
<polygon fill="#000000" stroke="#000000" points="160.465,-116.9853 149.9054,-116.1222 157.622,-123.3819 160.465,-116.9853"/>
</g>
<!-- n7 -->
<g id="node8" class="node">
<title>n7</title>
<ellipse fill="none" stroke="#000000" cx="453.1306" cy="-314" rx="90.355" ry="18"/>
<text text-anchor="middle" x="453.1306" y="-309.8" font-family="Times,serif" font-size="14.00" fill="#000000">etc1_swinging_bat 0.1</text>
</g>
<!-- n16 -->
<g id="node17" class="node">
<title>n16</title>
<polygon fill="none" stroke="#000000" points="497.4062,-260 334.8549,-260 334.8549,-224 497.4062,-224 497.4062,-260"/>
<text text-anchor="middle" x="416.1306" y="-237.8" font-family="Times,serif" font-size="14.00" fill="#000000">(swinging_bat&#39; $8 $11 $9)</text>
</g>
<!-- n7&#45;&gt;n16 -->
<g id="edge9" class="edge">
<title>n7&#45;&gt;n16</title>
<path fill="none" stroke="#000000" d="M443.7939,-295.8314C439.7063,-287.8771 434.8202,-278.369 430.2996,-269.5723"/>
<polygon fill="#000000" stroke="#000000" points="433.2767,-267.7078 425.5929,-260.4133 427.0507,-270.9074 433.2767,-267.7078"/>
</g>
<!-- n8 -->
<g id="node9" class="node">
<title>n8</title>
<ellipse fill="none" stroke="#000000" cx="525.1306" cy="-98" rx="91.2721" ry="18"/>
<text text-anchor="middle" x="525.1306" y="-93.8" font-family="Times,serif" font-size="14.00" fill="#000000">etc8_card_baseball 0.1</text>
</g>
<!-- n19 -->
<g id="node20" class="node">
<title>n19</title>
<polygon fill="none" stroke="#000000" points="494.4038,-40 391.8573,-40 391.8573,-4 494.4038,-4 494.4038,-40"/>
<polygon fill="none" stroke="#000000" points="498.4141,-44 387.847,-44 387.847,0 498.4141,0 498.4141,-44"/>
<text text-anchor="middle" x="443.1306" y="-17.8" font-family="Times,serif" font-size="14.00" fill="#000000">(card_baseball)</text>
</g>
<!-- n8&#45;&gt;n19 -->
<g id="edge16" class="edge">
<title>n8&#45;&gt;n19</title>
<path fill="none" stroke="#000000" d="M506.112,-80.373C496.7465,-71.6928 485.2084,-60.999 474.5776,-51.1461"/>
<polygon fill="#000000" stroke="#000000" points="476.7547,-48.3917 467.0412,-44.1611 471.9963,-53.5258 476.7547,-48.3917"/>
</g>
<!-- n9 -->
<g id="node10" class="node">
<title>n9</title>
<ellipse fill="none" stroke="#000000" cx="281.1306" cy="-98" rx="79.6713" ry="18"/>
<text text-anchor="middle" x="281.1306" y="-93.8" font-family="Times,serif" font-size="14.00" fill="#000000">etc8_card_heart 0.1</text>
</g>
<!-- n21 -->
<g id="node22" class="node">
<title>n21</title>
<polygon fill="none" stroke="#000000" points="286.5078,-40 201.7533,-40 201.7533,-4 286.5078,-4 286.5078,-40"/>
<polygon fill="none" stroke="#000000" points="290.5249,-44 197.7362,-44 197.7362,0 290.5249,0 290.5249,-44"/>
<text text-anchor="middle" x="244.1306" y="-17.8" font-family="Times,serif" font-size="14.00" fill="#000000">(card_heart)</text>
</g>
<!-- n9&#45;&gt;n21 -->
<g id="edge20" class="edge">
<title>n9&#45;&gt;n21</title>
<path fill="none" stroke="#000000" d="M272.3621,-79.9891C268.4921,-72.04 263.8279,-62.4594 259.4155,-53.396"/>
<polygon fill="#000000" stroke="#000000" points="262.4764,-51.6873 254.9522,-44.2282 256.1826,-54.7514 262.4764,-51.6873"/>
</g>
<!-- n10 -->
<g id="node11" class="node">
<title>n10</title>
<ellipse fill="none" stroke="#000000" cx="750.1306" cy="-98" rx="78.2349" ry="18"/>
<text text-anchor="middle" x="750.1306" y="-93.8" font-family="Times,serif" font-size="14.00" fill="#000000">etc8_card_train 0.1</text>
</g>
<!-- n17 -->
<g id="node18" class="node">
<title>n17</title>
<polygon fill="none" stroke="#000000" points="791.1968,-40 709.0643,-40 709.0643,-4 791.1968,-4 791.1968,-40"/>
<polygon fill="none" stroke="#000000" points="795.1999,-44 705.0612,-44 705.0612,0 795.1999,0 795.1999,-44"/>
<text text-anchor="middle" x="750.1306" y="-17.8" font-family="Times,serif" font-size="14.00" fill="#000000">(card_train)</text>
</g>
<!-- n10&#45;&gt;n17 -->
<g id="edge11" class="edge">
<title>n10&#45;&gt;n17</title>
<path fill="none" stroke="#000000" d="M750.1306,-79.9891C750.1306,-72.291 750.1306,-63.0629 750.1306,-54.2561"/>
<polygon fill="#000000" stroke="#000000" points="753.6307,-54.2282 750.1306,-44.2282 746.6307,-54.2282 753.6307,-54.2282"/>
</g>
<!-- n11&#45;&gt;n13 -->
<g id="edge4" class="edge">
<title>n11&#45;&gt;n13</title>
<path fill="none" stroke="#000000" d="M398.1762,-367.8314C371.7685,-358.0306 339.0049,-345.8709 311.302,-335.5894"/>
<polygon fill="#000000" stroke="#000000" points="312.3259,-332.2362 301.7329,-332.038 309.8903,-338.7988 312.3259,-332.2362"/>
</g>
<!-- n11&#45;&gt;n14 -->
<g id="edge6" class="edge">
<title>n11&#45;&gt;n14</title>
<path fill="none" stroke="#000000" d="M493.3092,-367.8314C518.1107,-358.0734 548.8556,-345.977 574.9149,-335.7242"/>
<polygon fill="#000000" stroke="#000000" points="576.2598,-338.9563 584.284,-332.038 573.6969,-332.4423 576.2598,-338.9563"/>
</g>
<!-- n12&#45;&gt;n17 -->
<g id="edge12" class="edge">
<title>n12&#45;&gt;n17</title>
<path fill="none" stroke="#000000" d="M857.7155,-79.9891C840.4913,-70.7051 819.1386,-59.1958 800.0075,-48.884"/>
<polygon fill="#000000" stroke="#000000" points="801.5738,-45.7522 791.1104,-44.0884 798.2524,-51.9142 801.5738,-45.7522"/>
</g>
<!-- n13&#45;&gt;n15 -->
<g id="edge8" class="edge">
<title>n13&#45;&gt;n15</title>
<path fill="none" stroke="#000000" d="M205.4379,-295.8314C179.8232,-286.0734 148.0703,-273.977 121.1566,-263.7242"/>
<polygon fill="#000000" stroke="#000000" points="122.0712,-260.3273 111.4803,-260.038 119.5792,-266.8687 122.0712,-260.3273"/>
</g>
<!-- n13&#45;&gt;n16 -->
<g id="edge10" class="edge">
<title>n13&#45;&gt;n16</title>
<path fill="none" stroke="#000000" d="M294.2623,-295.8314C316.0626,-286.2018 343.0183,-274.295 366.031,-264.1299"/>
<polygon fill="#000000" stroke="#000000" points="367.5614,-267.2802 375.2945,-260.038 364.733,-260.877 367.5614,-267.2802"/>
</g>
<!-- n14&#45;&gt;n17 -->
<g id="edge13" class="edge">
<title>n14&#45;&gt;n17</title>
<path fill="none" stroke="#000000" d="M627.966,-295.9043C623.9216,-254.2483 619.2256,-149.8048 663.1306,-80 671.2188,-67.1404 683.3163,-56.4903 695.9373,-47.9793"/>
<polygon fill="#000000" stroke="#000000" points="698.1346,-50.7309 704.7158,-42.428 694.3933,-44.8146 698.1346,-50.7309"/>
</g>
<!-- n15&#45;&gt;n18 -->
<g id="edge15" class="edge">
<title>n15&#45;&gt;n18</title>
<path fill="none" stroke="#000000" d="M68.9251,-223.8314C70.9794,-216.0463 73.4266,-206.7729 75.7061,-198.1347"/>
<polygon fill="#000000" stroke="#000000" points="79.104,-198.9753 78.2715,-188.4133 72.3357,-197.1892 79.104,-198.9753"/>
</g>
<!-- n16&#45;&gt;n19 -->
<g id="edge17" class="edge">
<title>n16&#45;&gt;n19</title>
<path fill="none" stroke="#000000" d="M415.698,-223.8526C415.3004,-193.7174 415.8429,-131.5634 425.1306,-80 426.6719,-71.4428 429.0881,-62.3799 431.6556,-54.0251"/>
<polygon fill="#000000" stroke="#000000" points="435.0645,-54.8588 434.8138,-44.2669 428.4046,-52.7033 435.0645,-54.8588"/>
</g>
<!-- n18&#45;&gt;n20 -->
<g id="edge19" class="edge">
<title>n18&#45;&gt;n20</title>
<path fill="none" stroke="#000000" d="M89.6915,-151.8314C92.5333,-143.9617 95.9243,-134.5712 99.0724,-125.8533"/>
<polygon fill="#000000" stroke="#000000" points="102.3767,-127.0076 102.4813,-116.4133 95.7929,-124.63 102.3767,-127.0076"/>
</g>
<!-- n20&#45;&gt;n21 -->
<g id="edge21" class="edge">
<title>n20&#45;&gt;n21</title>
<path fill="none" stroke="#000000" d="M141.1237,-79.9891C157.4733,-70.7848 177.7082,-59.3933 195.9037,-49.1499"/>
<polygon fill="#000000" stroke="#000000" points="197.6492,-52.1839 204.6462,-44.2282 194.2152,-46.084 197.6492,-52.1839"/>
</g>
</g>
</svg>
