<?xml version="1.0" encoding="UTF-8" standalone="no"?>
<!DOCTYPE svg PUBLIC "-//W3C//DTD SVG 1.1//EN"
 "http://www.w3.org/Graphics/SVG/1.1/DTD/svg11.dtd">
<!-- Generated by graphviz version 2.40.1 (20161225.0304)
 -->
<!-- Title: proof Pages: 1 -->
<svg width="1130pt" height="412pt"
 viewBox="0.00 0.00 1130.15 412.00" xmlns="http://www.w3.org/2000/svg" xmlns:xlink="http://www.w3.org/1999/xlink">
<g id="graph0" class="graph" transform="scale(1 1) rotate(0) translate(4 408)">
<title>proof</title>
<polygon fill="#ffffff" stroke="transparent" points="-4,4 -4,-408 1126.1539,-408 1126.1539,4 -4,4"/>
<!-- n0 -->
<g id="node1" class="node">
<title>n0</title>
<ellipse fill="none" stroke="#000000" cx="231.5059" cy="-386" rx="91.2807" ry="18"/>
<text text-anchor="middle" x="231.5059" y="-381.8" font-family="Times,serif" font-size="14.00" fill="#000000">etc0_happens_near 0.1</text>
</g>
<!-- n11 -->
<g id="node12" class="node">
<title>n11</title>
<polygon fill="none" stroke="#000000" points="325.8187,-332 161.1931,-332 161.1931,-296 325.8187,-296 325.8187,-332"/>
<text text-anchor="middle" x="243.5059" y="-309.8" font-family="Times,serif" font-size="14.00" fill="#000000">(happens_near&#39; $1 $10 $6)</text>
</g>
<!-- n0&#45;&gt;n11 -->
<g id="edge1" class="edge">
<title>n0&#45;&gt;n11</title>
<path fill="none" stroke="#000000" d="M234.534,-367.8314C235.8174,-360.131 237.3435,-350.9743 238.7698,-342.4166"/>
<polygon fill="#000000" stroke="#000000" points="242.2453,-342.8526 240.437,-332.4133 235.3405,-341.7018 242.2453,-342.8526"/>
</g>
<!-- n1 -->
<g id="node2" class="node">
<title>n1</title>
<ellipse fill="none" stroke="#000000" cx="439.5059" cy="-386" rx="98.5571" ry="18"/>
<text text-anchor="middle" x="439.5059" y="-381.8" font-family="Times,serif" font-size="14.00" fill="#000000">etc0_polluting_trains 0.1</text>
</g>
<!-- n12 -->
<g id="node13" class="node">
<title>n12</title>
<polygon fill="none" stroke="#000000" points="516.0154,-332 350.9963,-332 350.9963,-296 516.0154,-296 516.0154,-332"/>
<text text-anchor="middle" x="433.5059" y="-309.8" font-family="Times,serif" font-size="14.00" fill="#000000">(polluting_trains&#39; $10 $12)</text>
</g>
<!-- n1&#45;&gt;n12 -->
<g id="edge2" class="edge">
<title>n1&#45;&gt;n12</title>
<path fill="none" stroke="#000000" d="M437.9918,-367.8314C437.3501,-360.131 436.5871,-350.9743 435.8739,-342.4166"/>
<polygon fill="#000000" stroke="#000000" points="439.3588,-342.088 435.0403,-332.4133 432.3829,-342.6694 439.3588,-342.088"/>
</g>
<!-- n2 -->
<g id="node3" class="node">
<title>n2</title>
<ellipse fill="none" stroke="#000000" cx="1031.5059" cy="-314" rx="90.7962" ry="18"/>
<text text-anchor="middle" x="1031.5059" y="-309.8" font-family="Times,serif" font-size="14.00" fill="#000000">etc0_practice_field 0.1</text>
</g>
<!-- n13 -->
<g id="node14" class="node">
<title>n13</title>
<polygon fill="none" stroke="#000000" points="1101.0391,-260 961.9727,-260 961.9727,-224 1101.0391,-224 1101.0391,-260"/>
<text text-anchor="middle" x="1031.5059" y="-237.8" font-family="Times,serif" font-size="14.00" fill="#000000">(practice_field&#39; $8 $6)</text>
</g>
<!-- n2&#45;&gt;n13 -->
<g id="edge3" class="edge">
<title>n2&#45;&gt;n13</title>
<path fill="none" stroke="#000000" d="M1031.5059,-295.8314C1031.5059,-288.131 1031.5059,-278.9743 1031.5059,-270.4166"/>
<polygon fill="#000000" stroke="#000000" points="1035.006,-270.4132 1031.5059,-260.4133 1028.006,-270.4133 1035.006,-270.4132"/>
</g>
<!-- n3 -->
<g id="node4" class="node">
<title>n3</title>
<ellipse fill="none" stroke="#000000" cx="625.5059" cy="-314" rx="91.2807" ry="18"/>
<text text-anchor="middle" x="625.5059" y="-309.8" font-family="Times,serif" font-size="14.00" fill="#000000">etc0_workplace_of 0.1</text>
</g>
<!-- n14 -->
<g id="node15" class="node">
<title>n14</title>
<polygon fill="none" stroke="#000000" points="691.3187,-260 533.6931,-260 533.6931,-224 691.3187,-224 691.3187,-260"/>
<text text-anchor="middle" x="612.5059" y="-237.8" font-family="Times,serif" font-size="14.00" fill="#000000">(workplace_of&#39; $9 $7 $6)</text>
</g>
<!-- n3&#45;&gt;n14 -->
<g id="edge4" class="edge">
<title>n3&#45;&gt;n14</title>
<path fill="none" stroke="#000000" d="M622.2254,-295.8314C620.8351,-288.131 619.1818,-278.9743 617.6366,-270.4166"/>
<polygon fill="#000000" stroke="#000000" points="621.0517,-269.6322 615.8305,-260.4133 614.1631,-270.8761 621.0517,-269.6322"/>
</g>
<!-- n4 -->
<g id="node5" class="node">
<title>n4</title>
<ellipse fill="none" stroke="#000000" cx="807.5059" cy="-242" rx="98.0293" ry="18"/>
<text text-anchor="middle" x="807.5059" y="-237.8" font-family="Times,serif" font-size="14.00" fill="#000000">etc1_baseball_player 0.1</text>
</g>
<!-- n17 -->
<g id="node18" class="node">
<title>n17</title>
<polygon fill="none" stroke="#000000" points="895.1886,-188 737.8231,-188 737.8231,-152 895.1886,-152 895.1886,-188"/>
<text text-anchor="middle" x="816.5059" y="-165.8" font-family="Times,serif" font-size="14.00" fill="#000000">(baseball_player&#39; $11 $7)</text>
</g>
<!-- n4&#45;&gt;n17 -->
<g id="edge10" class="edge">
<title>n4&#45;&gt;n17</title>
<path fill="none" stroke="#000000" d="M809.7769,-223.8314C810.7395,-216.131 811.8841,-206.9743 812.9538,-198.4166"/>
<polygon fill="#000000" stroke="#000000" points="816.4367,-198.7702 814.2042,-188.4133 809.4908,-197.9019 816.4367,-198.7702"/>
</g>
<!-- n5 -->
<g id="node6" class="node">
<title>n5</title>
<ellipse fill="none" stroke="#000000" cx="406.5059" cy="-242" rx="90.3117" ry="18"/>
<text text-anchor="middle" x="406.5059" y="-237.8" font-family="Times,serif" font-size="14.00" fill="#000000">etc1_heart_disease 0.1</text>
</g>
<!-- n18 -->
<g id="node19" class="node">
<title>n18</title>
<polygon fill="none" stroke="#000000" points="388.76,-188 250.2517,-188 250.2517,-152 388.76,-152 388.76,-188"/>
<text text-anchor="middle" x="319.5059" y="-165.8" font-family="Times,serif" font-size="14.00" fill="#000000">(heart_disease&#39; $4 $7)</text>
</g>
<!-- n5&#45;&gt;n18 -->
<g id="edge13" class="edge">
<title>n5&#45;&gt;n18</title>
<path fill="none" stroke="#000000" d="M385.0002,-224.2022C374.2069,-215.2698 360.9619,-204.3085 349.2139,-194.586"/>
<polygon fill="#000000" stroke="#000000" points="351.3038,-191.7724 341.3684,-188.0931 346.8409,-197.1652 351.3038,-191.7724"/>
</g>
<!-- n6 -->
<g id="node7" class="node">
<title>n6</title>
<ellipse fill="none" stroke="#000000" cx="478.5059" cy="-170" rx="71.9704" ry="18"/>
<text text-anchor="middle" x="478.5059" y="-165.8" font-family="Times,serif" font-size="14.00" fill="#000000">etc1_heart_of 0.1</text>
</g>
<!-- n21 -->
<g id="node22" class="node">
<title>n21</title>
<polygon fill="none" stroke="#000000" points="445.9941,-116 319.0176,-116 319.0176,-80 445.9941,-80 445.9941,-116"/>
<text text-anchor="middle" x="382.5059" y="-93.8" font-family="Times,serif" font-size="14.00" fill="#000000">(heart_of&#39; $2 $3 $7)</text>
</g>
<!-- n6&#45;&gt;n21 -->
<g id="edge19" class="edge">
<title>n6&#45;&gt;n21</title>
<path fill="none" stroke="#000000" d="M455.2669,-152.5708C443.0433,-143.4031 427.8694,-132.0227 414.5466,-122.0305"/>
<polygon fill="#000000" stroke="#000000" points="416.6334,-119.2206 406.5333,-116.0206 412.4333,-124.8206 416.6334,-119.2206"/>
</g>
<!-- n7 -->
<g id="node8" class="node">
<title>n7</title>
<ellipse fill="none" stroke="#000000" cx="71.5059" cy="-314" rx="71.5117" ry="18"/>
<text text-anchor="middle" x="71.5059" y="-309.8" font-family="Times,serif" font-size="14.00" fill="#000000">etc1_polluted 0.1</text>
</g>
<!-- n16 -->
<g id="node17" class="node">
<title>n16</title>
<polygon fill="none" stroke="#000000" points="297.7357,-260 189.276,-260 189.276,-224 297.7357,-224 297.7357,-260"/>
<text text-anchor="middle" x="243.5059" y="-237.8" font-family="Times,serif" font-size="14.00" fill="#000000">(polluted&#39; $5 $6)</text>
</g>
<!-- n7&#45;&gt;n16 -->
<g id="edge7" class="edge">
<title>n7&#45;&gt;n16</title>
<path fill="none" stroke="#000000" d="M108.4042,-298.5542C132.4045,-288.5076 164.0775,-275.2491 190.7235,-264.0949"/>
<polygon fill="#000000" stroke="#000000" points="192.4166,-267.1806 200.2895,-260.0906 189.7136,-260.7235 192.4166,-267.1806"/>
</g>
<!-- n8 -->
<g id="node9" class="node">
<title>n8</title>
<ellipse fill="none" stroke="#000000" cx="732.5059" cy="-98" rx="91.2721" ry="18"/>
<text text-anchor="middle" x="732.5059" y="-93.8" font-family="Times,serif" font-size="14.00" fill="#000000">etc6_card_baseball 0.1</text>
</g>
<!-- n19 -->
<g id="node20" class="node">
<title>n19</title>
<polygon fill="none" stroke="#000000" points="824.7791,-40 722.2326,-40 722.2326,-4 824.7791,-4 824.7791,-40"/>
<polygon fill="none" stroke="#000000" points="828.7894,-44 718.2223,-44 718.2223,0 828.7894,0 828.7894,-44"/>
<text text-anchor="middle" x="773.5059" y="-17.8" font-family="Times,serif" font-size="14.00" fill="#000000">(card_baseball)</text>
</g>
<!-- n8&#45;&gt;n19 -->
<g id="edge16" class="edge">
<title>n8&#45;&gt;n19</title>
<path fill="none" stroke="#000000" d="M742.2223,-79.9891C746.5558,-71.9563 751.788,-62.2576 756.7229,-53.11"/>
<polygon fill="#000000" stroke="#000000" points="759.8467,-54.691 761.5143,-44.2282 753.686,-51.3674 759.8467,-54.691"/>
</g>
<!-- n9 -->
<g id="node10" class="node">
<title>n9</title>
<ellipse fill="none" stroke="#000000" cx="543.5059" cy="-98" rx="79.6713" ry="18"/>
<text text-anchor="middle" x="543.5059" y="-93.8" font-family="Times,serif" font-size="14.00" fill="#000000">etc6_card_heart 0.1</text>
</g>
<!-- n22 -->
<g id="node23" class="node">
<title>n22</title>
<polygon fill="none" stroke="#000000" points="505.8832,-40 421.1286,-40 421.1286,-4 505.8832,-4 505.8832,-40"/>
<polygon fill="none" stroke="#000000" points="509.9003,-44 417.1115,-44 417.1115,0 509.9003,0 509.9003,-44"/>
<text text-anchor="middle" x="463.5059" y="-17.8" font-family="Times,serif" font-size="14.00" fill="#000000">(card_heart)</text>
</g>
<!-- n9&#45;&gt;n22 -->
<g id="edge21" class="edge">
<title>n9&#45;&gt;n22</title>
<path fill="none" stroke="#000000" d="M524.9512,-80.373C515.8141,-71.6928 504.5574,-60.999 494.1859,-51.1461"/>
<polygon fill="#000000" stroke="#000000" points="496.494,-48.5111 486.8333,-44.1611 491.6727,-53.5861 496.494,-48.5111"/>
</g>
<!-- n10 -->
<g id="node11" class="node">
<title>n10</title>
<ellipse fill="none" stroke="#000000" cx="1039.5059" cy="-98" rx="78.2349" ry="18"/>
<text text-anchor="middle" x="1039.5059" y="-93.8" font-family="Times,serif" font-size="14.00" fill="#000000">etc6_card_train 0.1</text>
</g>
<!-- n15 -->
<g id="node16" class="node">
<title>n15</title>
<polygon fill="none" stroke="#000000" points="1027.5721,-40 945.4396,-40 945.4396,-4 1027.5721,-4 1027.5721,-40"/>
<polygon fill="none" stroke="#000000" points="1031.5752,-44 941.4365,-44 941.4365,0 1031.5752,0 1031.5752,-44"/>
<text text-anchor="middle" x="986.5059" y="-17.8" font-family="Times,serif" font-size="14.00" fill="#000000">(card_train)</text>
</g>
<!-- n10&#45;&gt;n15 -->
<g id="edge5" class="edge">
<title>n10&#45;&gt;n15</title>
<path fill="none" stroke="#000000" d="M1026.9456,-79.9891C1021.2271,-71.7889 1014.2979,-61.8527 1007.8028,-52.539"/>
<polygon fill="#000000" stroke="#000000" points="1010.5982,-50.4286 1002.0071,-44.2282 1004.8564,-54.4327 1010.5982,-50.4286"/>
</g>
<!-- n11&#45;&gt;n16 -->
<g id="edge8" class="edge">
<title>n11&#45;&gt;n16</title>
<path fill="none" stroke="#000000" d="M243.5059,-295.8314C243.5059,-288.131 243.5059,-278.9743 243.5059,-270.4166"/>
<polygon fill="#000000" stroke="#000000" points="247.006,-270.4132 243.5059,-260.4133 240.006,-270.4133 247.006,-270.4132"/>
</g>
<!-- n12&#45;&gt;n15 -->
<g id="edge6" class="edge">
<title>n12&#45;&gt;n15</title>
<path fill="none" stroke="#000000" d="M516.1908,-297.4138C519.3318,-296.9137 522.4451,-296.4399 525.5059,-296 611.4367,-283.6496 849.6705,-317.7323 914.5059,-260 975.5693,-205.6264 923.0049,-156.2557 952.5059,-80 956.1003,-70.7088 961.0774,-61.1659 966.1155,-52.5718"/>
<polygon fill="#000000" stroke="#000000" points="969.118,-54.3706 971.3325,-44.0098 963.1403,-50.7282 969.118,-54.3706"/>
</g>
<!-- n12&#45;&gt;n16 -->
<g id="edge9" class="edge">
<title>n12&#45;&gt;n16</title>
<path fill="none" stroke="#000000" d="M385.5608,-295.8314C359.6977,-286.0306 327.6096,-273.8709 300.4779,-263.5894"/>
<polygon fill="#000000" stroke="#000000" points="301.6975,-260.3087 291.1061,-260.038 299.217,-266.8545 301.6975,-260.3087"/>
</g>
<!-- n13&#45;&gt;n17 -->
<g id="edge11" class="edge">
<title>n13&#45;&gt;n17</title>
<path fill="none" stroke="#000000" d="M977.5298,-223.9243C948.0103,-214.0387 911.2614,-201.7321 880.327,-191.3726"/>
<polygon fill="#000000" stroke="#000000" points="881.098,-187.9399 870.5041,-188.0831 878.8751,-194.5776 881.098,-187.9399"/>
</g>
<!-- n14&#45;&gt;n17 -->
<g id="edge12" class="edge">
<title>n14&#45;&gt;n17</title>
<path fill="none" stroke="#000000" d="M663.7204,-223.9243C691.6084,-214.0815 726.2965,-201.8386 755.5685,-191.5073"/>
<polygon fill="#000000" stroke="#000000" points="757.0053,-194.7119 765.2703,-188.0831 754.6755,-188.1109 757.0053,-194.7119"/>
</g>
<!-- n14&#45;&gt;n18 -->
<g id="edge14" class="edge">
<title>n14&#45;&gt;n18</title>
<path fill="none" stroke="#000000" d="M538.9478,-223.9243C496.1602,-213.4099 442.2275,-200.1569 398.5376,-189.4208"/>
<polygon fill="#000000" stroke="#000000" points="399.3561,-186.0178 388.8097,-187.0303 397.6856,-192.8156 399.3561,-186.0178"/>
</g>
<!-- n16&#45;&gt;n18 -->
<g id="edge15" class="edge">
<title>n16&#45;&gt;n18</title>
<path fill="none" stroke="#000000" d="M262.6839,-223.8314C271.8647,-215.1337 283.0065,-204.5783 292.9834,-195.1265"/>
<polygon fill="#000000" stroke="#000000" points="295.4816,-197.5811 300.334,-188.1628 290.6673,-192.4995 295.4816,-197.5811"/>
</g>
<!-- n17&#45;&gt;n19 -->
<g id="edge17" class="edge">
<title>n17&#45;&gt;n19</title>
<path fill="none" stroke="#000000" d="M825.5618,-151.7517C833.5093,-133.0858 842.3845,-103.5638 832.5059,-80 827.9959,-69.2423 820.4099,-59.4731 812.1533,-51.1478"/>
<polygon fill="#000000" stroke="#000000" points="814.4666,-48.5187 804.7853,-44.2148 809.6696,-53.6167 814.4666,-48.5187"/>
</g>
<!-- n20 -->
<g id="node21" class="node">
<title>n20</title>
<polygon fill="none" stroke="#000000" points="301.4052,-116 215.6065,-116 215.6065,-80 301.4052,-80 301.4052,-116"/>
<text text-anchor="middle" x="258.5059" y="-93.8" font-family="Times,serif" font-size="14.00" fill="#000000">(dies&#39; $4 $7)</text>
</g>
<!-- n18&#45;&gt;n20 -->
<g id="edge18" class="edge">
<title>n18&#45;&gt;n20</title>
<path fill="none" stroke="#000000" d="M304.113,-151.8314C297.0155,-143.454 288.4578,-133.3531 280.6819,-124.1749"/>
<polygon fill="#000000" stroke="#000000" points="283.2407,-121.7807 274.106,-116.4133 277.8997,-126.3056 283.2407,-121.7807"/>
</g>
<!-- n18&#45;&gt;n21 -->
<g id="edge20" class="edge">
<title>n18&#45;&gt;n21</title>
<path fill="none" stroke="#000000" d="M335.4034,-151.8314C342.7336,-143.454 351.5719,-133.3531 359.6028,-124.1749"/>
<polygon fill="#000000" stroke="#000000" points="362.4432,-126.2438 366.3943,-116.4133 357.1752,-121.6343 362.4432,-126.2438"/>
</g>
<!-- n21&#45;&gt;n22 -->
<g id="edge22" class="edge">
<title>n21&#45;&gt;n22</title>
<path fill="none" stroke="#000000" d="M401.7017,-79.9891C410.8872,-71.3706 422.1167,-60.8343 432.4716,-51.1186"/>
<polygon fill="#000000" stroke="#000000" points="434.9175,-53.6231 439.8153,-44.2282 430.1278,-48.5182 434.9175,-53.6231"/>
</g>
</g>
</svg>
