<?xml version="1.0" encoding="UTF-8" standalone="no"?>
<!DOCTYPE svg PUBLIC "-//W3C//DTD SVG 1.1//EN"
 "http://www.w3.org/Graphics/SVG/1.1/DTD/svg11.dtd">
<!-- Generated by graphviz version 2.40.1 (20161225.0304)
 -->
<!-- Title: proof Pages: 1 -->
<svg width="820pt" height="412pt"
 viewBox="0.00 0.00 820.50 412.00" xmlns="http://www.w3.org/2000/svg" xmlns:xlink="http://www.w3.org/1999/xlink">
<g id="graph0" class="graph" transform="scale(1 1) rotate(0) translate(4 408)">
<title>proof</title>
<polygon fill="#ffffff" stroke="transparent" points="-4,4 -4,-408 816.4979,-408 816.4979,4 -4,4"/>
<!-- n0 -->
<g id="node1" class="node">
<title>n0</title>
<ellipse fill="none" stroke="#000000" cx="64.1306" cy="-386" rx="64.2614" ry="18"/>
<text text-anchor="middle" x="64.1306" y="-381.8" font-family="Times,serif" font-size="14.00" fill="#000000">etc0_at_bat 0.1</text>
</g>
<!-- n7 -->
<g id="node8" class="node">
<title>n7</title>
<polygon fill="none" stroke="#000000" points="112.6843,-332 15.5768,-332 15.5768,-296 112.6843,-296 112.6843,-332"/>
<text text-anchor="middle" x="64.1306" y="-309.8" font-family="Times,serif" font-size="14.00" fill="#000000">(at_bat&#39; $4 $3)</text>
</g>
<!-- n0&#45;&gt;n7 -->
<g id="edge1" class="edge">
<title>n0&#45;&gt;n7</title>
<path fill="none" stroke="#000000" d="M64.1306,-367.8314C64.1306,-360.131 64.1306,-350.9743 64.1306,-342.4166"/>
<polygon fill="#000000" stroke="#000000" points="67.6307,-342.4132 64.1306,-332.4133 60.6307,-342.4133 67.6307,-342.4132"/>
</g>
<!-- n1 -->
<g id="node2" class="node">
<title>n1</title>
<ellipse fill="none" stroke="#000000" cx="183.1306" cy="-98" rx="91.2721" ry="18"/>
<text text-anchor="middle" x="183.1306" y="-93.8" font-family="Times,serif" font-size="14.00" fill="#000000">etc1_card_baseball 0.1</text>
</g>
<!-- n8 -->
<g id="node9" class="node">
<title>n8</title>
<polygon fill="none" stroke="#000000" points="204.4038,-40 101.8573,-40 101.8573,-4 204.4038,-4 204.4038,-40"/>
<polygon fill="none" stroke="#000000" points="208.4141,-44 97.847,-44 97.847,0 208.4141,0 208.4141,-44"/>
<text text-anchor="middle" x="153.1306" y="-17.8" font-family="Times,serif" font-size="14.00" fill="#000000">(card_baseball)</text>
</g>
<!-- n1&#45;&gt;n8 -->
<g id="edge2" class="edge">
<title>n1&#45;&gt;n8</title>
<path fill="none" stroke="#000000" d="M176.021,-79.9891C172.9162,-72.1236 169.1809,-62.6609 165.6368,-53.6824"/>
<polygon fill="#000000" stroke="#000000" points="168.8321,-52.2447 161.9048,-44.2282 162.321,-54.8149 168.8321,-52.2447"/>
</g>
<!-- n2 -->
<g id="node3" class="node">
<title>n2</title>
<ellipse fill="none" stroke="#000000" cx="410.1306" cy="-98" rx="79.6713" ry="18"/>
<text text-anchor="middle" x="410.1306" y="-93.8" font-family="Times,serif" font-size="14.00" fill="#000000">etc1_card_heart 0.1</text>
</g>
<!-- n11 -->
<g id="node12" class="node">
<title>n11</title>
<polygon fill="none" stroke="#000000" points="373.5078,-40 288.7533,-40 288.7533,-4 373.5078,-4 373.5078,-40"/>
<polygon fill="none" stroke="#000000" points="377.5249,-44 284.7362,-44 284.7362,0 377.5249,0 377.5249,-44"/>
<text text-anchor="middle" x="331.1306" y="-17.8" font-family="Times,serif" font-size="14.00" fill="#000000">(card_heart)</text>
</g>
<!-- n2&#45;&gt;n11 -->
<g id="edge8" class="edge">
<title>n2&#45;&gt;n11</title>
<path fill="none" stroke="#000000" d="M391.8078,-80.373C382.7849,-71.6928 371.669,-60.999 361.4271,-51.1461"/>
<polygon fill="#000000" stroke="#000000" points="363.7996,-48.5717 354.1664,-44.1611 358.9465,-53.6163 363.7996,-48.5717"/>
</g>
<!-- n3 -->
<g id="node4" class="node">
<title>n3</title>
<ellipse fill="none" stroke="#000000" cx="734.1306" cy="-98" rx="78.2349" ry="18"/>
<text text-anchor="middle" x="734.1306" y="-93.8" font-family="Times,serif" font-size="14.00" fill="#000000">etc1_card_train 0.1</text>
</g>
<!-- n13 -->
<g id="node14" class="node">
<title>n13</title>
<polygon fill="none" stroke="#000000" points="694.1968,-40 612.0643,-40 612.0643,-4 694.1968,-4 694.1968,-40"/>
<polygon fill="none" stroke="#000000" points="698.1999,-44 608.0612,-44 608.0612,0 698.1999,0 698.1999,-44"/>
<text text-anchor="middle" x="653.1306" y="-17.8" font-family="Times,serif" font-size="14.00" fill="#000000">(card_train)</text>
</g>
<!-- n3&#45;&gt;n13 -->
<g id="edge12" class="edge">
<title>n3&#45;&gt;n13</title>
<path fill="none" stroke="#000000" d="M715.3439,-80.373C706.0926,-71.6928 694.6952,-60.999 684.1941,-51.1461"/>
<polygon fill="#000000" stroke="#000000" points="686.437,-48.4511 676.7496,-44.1611 681.6473,-53.5559 686.437,-48.4511"/>
</g>
<!-- n4 -->
<g id="node5" class="node">
<title>n4</title>
<ellipse fill="none" stroke="#000000" cx="573.1306" cy="-170" rx="84.5169" ry="18"/>
<text text-anchor="middle" x="573.1306" y="-165.8" font-family="Times,serif" font-size="14.00" fill="#000000">etc1_like_a_train 0.1</text>
</g>
<!-- n12 -->
<g id="node13" class="node">
<title>n12</title>
<polygon fill="none" stroke="#000000" points="637.8399,-116 508.4212,-116 508.4212,-80 637.8399,-80 637.8399,-116"/>
<text text-anchor="middle" x="573.1306" y="-93.8" font-family="Times,serif" font-size="14.00" fill="#000000">(like_a_train&#39; $6 $5)</text>
</g>
<!-- n4&#45;&gt;n12 -->
<g id="edge10" class="edge">
<title>n4&#45;&gt;n12</title>
<path fill="none" stroke="#000000" d="M573.1306,-151.8314C573.1306,-144.131 573.1306,-134.9743 573.1306,-126.4166"/>
<polygon fill="#000000" stroke="#000000" points="576.6307,-126.4132 573.1306,-116.4133 569.6307,-126.4133 576.6307,-126.4132"/>
</g>
<!-- n5 -->
<g id="node6" class="node">
<title>n5</title>
<ellipse fill="none" stroke="#000000" cx="248.1306" cy="-314" rx="117.807" ry="18"/>
<text text-anchor="middle" x="248.1306" y="-309.8" font-family="Times,serif" font-size="14.00" fill="#000000">etc1_performance_anxiety 0.1</text>
</g>
<!-- n9 -->
<g id="node10" class="node">
<title>n9</title>
<polygon fill="none" stroke="#000000" points="306.9158,-260 125.3453,-260 125.3453,-224 306.9158,-224 306.9158,-260"/>
<text text-anchor="middle" x="216.1306" y="-237.8" font-family="Times,serif" font-size="14.00" fill="#000000">(performance_anxiety&#39; $1 $3)</text>
</g>
<!-- n5&#45;&gt;n9 -->
<g id="edge4" class="edge">
<title>n5&#45;&gt;n9</title>
<path fill="none" stroke="#000000" d="M240.0556,-295.8314C236.5204,-287.8771 232.2946,-278.369 228.3849,-269.5723"/>
<polygon fill="#000000" stroke="#000000" points="231.574,-268.1299 224.3142,-260.4133 225.1773,-270.9729 231.574,-268.1299"/>
</g>
<!-- n6 -->
<g id="node7" class="node">
<title>n6</title>
<ellipse fill="none" stroke="#000000" cx="412.1306" cy="-242" rx="86.9289" ry="18"/>
<text text-anchor="middle" x="412.1306" y="-237.8" font-family="Times,serif" font-size="14.00" fill="#000000">etc1_racing_heart 0.1</text>
</g>
<!-- n10 -->
<g id="node11" class="node">
<title>n10</title>
<polygon fill="none" stroke="#000000" points="419.4364,-188 286.8247,-188 286.8247,-152 419.4364,-152 419.4364,-188"/>
<text text-anchor="middle" x="353.1306" y="-165.8" font-family="Times,serif" font-size="14.00" fill="#000000">(racing_heart&#39; $5 $2)</text>
</g>
<!-- n6&#45;&gt;n10 -->
<g id="edge6" class="edge">
<title>n6&#45;&gt;n10</title>
<path fill="none" stroke="#000000" d="M397.5463,-224.2022C390.5785,-215.6992 382.1043,-205.3577 374.4332,-195.9965"/>
<polygon fill="#000000" stroke="#000000" points="377.0023,-193.6095 367.9569,-188.0931 371.5879,-198.0463 377.0023,-193.6095"/>
</g>
<!-- n7&#45;&gt;n8 -->
<g id="edge3" class="edge">
<title>n7&#45;&gt;n8</title>
<path fill="none" stroke="#000000" d="M61.1019,-295.9952C55.1149,-254.9677 45.3973,-152.4883 83.1306,-80 88.9956,-68.7328 98.0918,-58.8173 107.8077,-50.5174"/>
<polygon fill="#000000" stroke="#000000" points="110.0639,-53.1946 115.6826,-44.2124 105.6889,-47.7302 110.0639,-53.1946"/>
</g>
<!-- n7&#45;&gt;n9 -->
<g id="edge5" class="edge">
<title>n7&#45;&gt;n9</title>
<path fill="none" stroke="#000000" d="M102.4866,-295.8314C122.635,-286.2874 147.5058,-274.5065 168.8388,-264.4013"/>
<polygon fill="#000000" stroke="#000000" points="170.5113,-267.482 178.0504,-260.038 167.5146,-261.1558 170.5113,-267.482"/>
</g>
<!-- n9&#45;&gt;n10 -->
<g id="edge7" class="edge">
<title>n9&#45;&gt;n10</title>
<path fill="none" stroke="#000000" d="M250.7014,-223.8314C268.5491,-214.4516 290.5079,-202.9112 309.5106,-192.9244"/>
<polygon fill="#000000" stroke="#000000" points="311.347,-195.9132 318.5707,-188.1628 308.0905,-189.7168 311.347,-195.9132"/>
</g>
<!-- n10&#45;&gt;n11 -->
<g id="edge9" class="edge">
<title>n10&#45;&gt;n11</title>
<path fill="none" stroke="#000000" d="M338.8946,-151.6423C332.0767,-141.6872 324.6444,-128.8222 321.1306,-116 315.5934,-95.7946 318.0651,-72.3664 321.9352,-53.9538"/>
<polygon fill="#000000" stroke="#000000" points="325.3881,-54.5586 324.256,-44.0244 318.5718,-52.9654 325.3881,-54.5586"/>
</g>
<!-- n10&#45;&gt;n12 -->
<g id="edge11" class="edge">
<title>n10&#45;&gt;n12</title>
<path fill="none" stroke="#000000" d="M408.3619,-151.9243C438.6987,-141.9959 476.4971,-129.6255 508.236,-119.2382"/>
<polygon fill="#000000" stroke="#000000" points="509.4612,-122.52 517.8765,-116.0831 507.2839,-115.8672 509.4612,-122.52"/>
</g>
<!-- n12&#45;&gt;n13 -->
<g id="edge13" class="edge">
<title>n12&#45;&gt;n13</title>
<path fill="none" stroke="#000000" d="M592.0894,-79.9891C601.1615,-71.3706 612.2523,-60.8343 622.4794,-51.1186"/>
<polygon fill="#000000" stroke="#000000" points="624.893,-53.6532 629.7324,-44.2282 620.0718,-48.5782 624.893,-53.6532"/>
</g>
</g>
</svg>
