<?xml version="1.0" encoding="UTF-8" standalone="no"?>
<!DOCTYPE svg PUBLIC "-//W3C//DTD SVG 1.1//EN"
 "http://www.w3.org/Graphics/SVG/1.1/DTD/svg11.dtd">
<!-- Generated by graphviz version 2.40.1 (20161225.0304)
 -->
<!-- Title: proof Pages: 1 -->
<svg width="860pt" height="556pt"
 viewBox="0.00 0.00 859.97 556.00" xmlns="http://www.w3.org/2000/svg" xmlns:xlink="http://www.w3.org/1999/xlink">
<g id="graph0" class="graph" transform="scale(1 1) rotate(0) translate(4 552)">
<title>proof</title>
<polygon fill="#ffffff" stroke="transparent" points="-4,4 -4,-552 855.966,-552 855.966,4 -4,4"/>
<!-- n0 -->
<g id="node1" class="node">
<title>n0</title>
<ellipse fill="none" stroke="#000000" cx="64.1306" cy="-530" rx="64.2614" ry="18"/>
<text text-anchor="middle" x="64.1306" y="-525.8" font-family="Times,serif" font-size="14.00" fill="#000000">etc0_at_bat 0.1</text>
</g>
<!-- n11 -->
<g id="node12" class="node">
<title>n11</title>
<polygon fill="none" stroke="#000000" points="112.6843,-476 15.5768,-476 15.5768,-440 112.6843,-440 112.6843,-476"/>
<text text-anchor="middle" x="64.1306" y="-453.8" font-family="Times,serif" font-size="14.00" fill="#000000">(at_bat&#39; $7 $9)</text>
</g>
<!-- n0&#45;&gt;n11 -->
<g id="edge1" class="edge">
<title>n0&#45;&gt;n11</title>
<path fill="none" stroke="#000000" d="M64.1306,-511.8314C64.1306,-504.131 64.1306,-494.9743 64.1306,-486.4166"/>
<polygon fill="#000000" stroke="#000000" points="67.6307,-486.4132 64.1306,-476.4133 60.6307,-486.4133 67.6307,-486.4132"/>
</g>
<!-- n1 -->
<g id="node2" class="node">
<title>n1</title>
<ellipse fill="none" stroke="#000000" cx="637.1306" cy="-458" rx="99.4916" ry="18"/>
<text text-anchor="middle" x="637.1306" y="-453.8" font-family="Times,serif" font-size="14.00" fill="#000000">etc0_done_very_well 0.1</text>
</g>
<!-- n12 -->
<g id="node13" class="node">
<title>n12</title>
<polygon fill="none" stroke="#000000" points="720.1586,-404 554.1025,-404 554.1025,-368 720.1586,-368 720.1586,-404"/>
<text text-anchor="middle" x="637.1306" y="-381.8" font-family="Times,serif" font-size="14.00" fill="#000000">(done_very_well&#39; $11 $10)</text>
</g>
<!-- n1&#45;&gt;n12 -->
<g id="edge2" class="edge">
<title>n1&#45;&gt;n12</title>
<path fill="none" stroke="#000000" d="M637.1306,-439.8314C637.1306,-432.131 637.1306,-422.9743 637.1306,-414.4166"/>
<polygon fill="#000000" stroke="#000000" points="640.6307,-414.4132 637.1306,-404.4133 633.6307,-414.4133 640.6307,-414.4132"/>
</g>
<!-- n2 -->
<g id="node3" class="node">
<title>n2</title>
<ellipse fill="none" stroke="#000000" cx="455.1306" cy="-386" rx="80.6663" ry="18"/>
<text text-anchor="middle" x="455.1306" y="-381.8" font-family="Times,serif" font-size="14.00" fill="#000000">etc1_admiration 0.1</text>
</g>
<!-- n15 -->
<g id="node16" class="node">
<title>n15</title>
<polygon fill="none" stroke="#000000" points="536.6264,-332 377.6347,-332 377.6347,-296 536.6264,-296 536.6264,-332"/>
<text text-anchor="middle" x="457.1306" y="-309.8" font-family="Times,serif" font-size="14.00" fill="#000000">(admiration&#39; $4 $6 $9 $5)</text>
</g>
<!-- n2&#45;&gt;n15 -->
<g id="edge7" class="edge">
<title>n2&#45;&gt;n15</title>
<path fill="none" stroke="#000000" d="M455.6352,-367.8314C455.8491,-360.131 456.1035,-350.9743 456.3412,-342.4166"/>
<polygon fill="#000000" stroke="#000000" points="459.84,-342.5066 456.6191,-332.4133 452.8427,-342.3122 459.84,-342.5066"/>
</g>
<!-- n3 -->
<g id="node4" class="node">
<title>n3</title>
<ellipse fill="none" stroke="#000000" cx="237.1306" cy="-314" rx="122.6694" ry="18"/>
<text text-anchor="middle" x="237.1306" y="-309.8" font-family="Times,serif" font-size="14.00" fill="#000000">etc1_ambition_to_be_better 0.1</text>
</g>
<!-- n16 -->
<g id="node17" class="node">
<title>n16</title>
<polygon fill="none" stroke="#000000" points="353.7224,-260 146.5387,-260 146.5387,-224 353.7224,-224 353.7224,-260"/>
<text text-anchor="middle" x="250.1306" y="-237.8" font-family="Times,serif" font-size="14.00" fill="#000000">(ambition_to_be_better&#39; $3 $6 $5)</text>
</g>
<!-- n3&#45;&gt;n16 -->
<g id="edge10" class="edge">
<title>n3&#45;&gt;n16</title>
<path fill="none" stroke="#000000" d="M240.411,-295.8314C241.8014,-288.131 243.4546,-278.9743 244.9998,-270.4166"/>
<polygon fill="#000000" stroke="#000000" points="248.4733,-270.8761 246.8059,-260.4133 241.5847,-269.6322 248.4733,-270.8761"/>
</g>
<!-- n4 -->
<g id="node5" class="node">
<title>n4</title>
<ellipse fill="none" stroke="#000000" cx="164.1306" cy="-98" rx="91.2721" ry="18"/>
<text text-anchor="middle" x="164.1306" y="-93.8" font-family="Times,serif" font-size="14.00" fill="#000000">etc1_card_baseball 0.1</text>
</g>
<!-- n13 -->
<g id="node14" class="node">
<title>n13</title>
<polygon fill="none" stroke="#000000" points="156.4038,-40 53.8573,-40 53.8573,-4 156.4038,-4 156.4038,-40"/>
<polygon fill="none" stroke="#000000" points="160.4141,-44 49.847,-44 49.847,0 160.4141,0 160.4141,-44"/>
<text text-anchor="middle" x="105.1306" y="-17.8" font-family="Times,serif" font-size="14.00" fill="#000000">(card_baseball)</text>
</g>
<!-- n4&#45;&gt;n13 -->
<g id="edge3" class="edge">
<title>n4&#45;&gt;n13</title>
<path fill="none" stroke="#000000" d="M150.1484,-79.9891C143.7175,-71.7053 135.9113,-61.6498 128.6173,-52.2541"/>
<polygon fill="#000000" stroke="#000000" points="131.2836,-49.9811 122.3867,-44.2282 125.7542,-54.2736 131.2836,-49.9811"/>
</g>
<!-- n5 -->
<g id="node6" class="node">
<title>n5</title>
<ellipse fill="none" stroke="#000000" cx="489.1306" cy="-170" rx="132.784" ry="18"/>
<text text-anchor="middle" x="489.1306" y="-165.8" font-family="Times,serif" font-size="14.00" fill="#000000">etc1_english_pun_for_practice 0.1</text>
</g>
<!-- n20 -->
<g id="node21" class="node">
<title>n20</title>
<polygon fill="none" stroke="#000000" points="461.5402,-116 272.7209,-116 272.7209,-80 461.5402,-80 461.5402,-116"/>
<text text-anchor="middle" x="367.1306" y="-93.8" font-family="Times,serif" font-size="14.00" fill="#000000">(english_pun_for_practice&#39; $1)</text>
</g>
<!-- n5&#45;&gt;n20 -->
<g id="edge18" class="edge">
<title>n5&#45;&gt;n20</title>
<path fill="none" stroke="#000000" d="M459.286,-152.3868C443.4271,-143.0275 423.7277,-131.4016 406.6181,-121.3041"/>
<polygon fill="#000000" stroke="#000000" points="408.3319,-118.2515 397.9409,-116.1832 404.7741,-124.28 408.3319,-118.2515"/>
</g>
<!-- n6 -->
<g id="node7" class="node">
<title>n6</title>
<ellipse fill="none" stroke="#000000" cx="442.1306" cy="-242" rx="70.5081" ry="18"/>
<text text-anchor="middle" x="442.1306" y="-237.8" font-family="Times,serif" font-size="14.00" fill="#000000">etc1_practice 0.1</text>
</g>
<!-- n18 -->
<g id="node19" class="node">
<title>n18</title>
<polygon fill="none" stroke="#000000" points="338.2746,-188 213.9865,-188 213.9865,-152 338.2746,-152 338.2746,-188"/>
<text text-anchor="middle" x="276.1306" y="-165.8" font-family="Times,serif" font-size="14.00" fill="#000000">(practice&#39; $2 $6 $5)</text>
</g>
<!-- n6&#45;&gt;n18 -->
<g id="edge14" class="edge">
<title>n6&#45;&gt;n18</title>
<path fill="none" stroke="#000000" d="M406.111,-226.3771C382.9263,-216.321 352.4491,-203.102 326.8342,-191.9919"/>
<polygon fill="#000000" stroke="#000000" points="328.2065,-188.7722 317.6396,-188.0039 325.4211,-195.1941 328.2065,-188.7722"/>
</g>
<!-- n7 -->
<g id="node8" class="node">
<title>n7</title>
<ellipse fill="none" stroke="#000000" cx="252.1306" cy="-458" rx="112.5052" ry="18"/>
<text text-anchor="middle" x="252.1306" y="-453.8" font-family="Times,serif" font-size="14.00" fill="#000000">etc1_sports_performance 0.1</text>
</g>
<!-- n14 -->
<g id="node15" class="node">
<title>n14</title>
<polygon fill="none" stroke="#000000" points="351.1575,-404 153.1036,-404 153.1036,-368 351.1575,-368 351.1575,-404"/>
<text text-anchor="middle" x="252.1306" y="-381.8" font-family="Times,serif" font-size="14.00" fill="#000000">(sports_performance&#39; $10 $9 $5)</text>
</g>
<!-- n7&#45;&gt;n14 -->
<g id="edge5" class="edge">
<title>n7&#45;&gt;n14</title>
<path fill="none" stroke="#000000" d="M252.1306,-439.8314C252.1306,-432.131 252.1306,-422.9743 252.1306,-414.4166"/>
<polygon fill="#000000" stroke="#000000" points="255.6307,-414.4132 252.1306,-404.4133 248.6307,-414.4133 255.6307,-414.4132"/>
</g>
<!-- n8 -->
<g id="node9" class="node">
<title>n8</title>
<ellipse fill="none" stroke="#000000" cx="772.1306" cy="-98" rx="79.6713" ry="18"/>
<text text-anchor="middle" x="772.1306" y="-93.8" font-family="Times,serif" font-size="14.00" fill="#000000">etc2_card_heart 0.1</text>
</g>
<!-- n19 -->
<g id="node20" class="node">
<title>n19</title>
<polygon fill="none" stroke="#000000" points="760.5078,-40 675.7533,-40 675.7533,-4 760.5078,-4 760.5078,-40"/>
<polygon fill="none" stroke="#000000" points="764.5249,-44 671.7362,-44 671.7362,0 764.5249,0 764.5249,-44"/>
<text text-anchor="middle" x="718.1306" y="-17.8" font-family="Times,serif" font-size="14.00" fill="#000000">(card_heart)</text>
</g>
<!-- n8&#45;&gt;n19 -->
<g id="edge16" class="edge">
<title>n8&#45;&gt;n19</title>
<path fill="none" stroke="#000000" d="M759.3333,-79.9891C753.5069,-71.7889 746.447,-61.8527 739.8293,-52.539"/>
<polygon fill="#000000" stroke="#000000" points="742.5695,-50.3528 733.9243,-44.2282 736.8633,-54.4073 742.5695,-50.3528"/>
</g>
<!-- n9 -->
<g id="node10" class="node">
<title>n9</title>
<ellipse fill="none" stroke="#000000" cx="663.1306" cy="-314" rx="106.2664" ry="18"/>
<text text-anchor="middle" x="663.1306" y="-309.8" font-family="Times,serif" font-size="14.00" fill="#000000">etc2_symbolic_of_love 0.1</text>
</g>
<!-- n17 -->
<g id="node18" class="node">
<title>n17</title>
<polygon fill="none" stroke="#000000" points="736.5746,-260 589.6865,-260 589.6865,-224 736.5746,-224 736.5746,-260"/>
<text text-anchor="middle" x="663.1306" y="-237.8" font-family="Times,serif" font-size="14.00" fill="#000000">(symbolic_of_love&#39; $8)</text>
</g>
<!-- n9&#45;&gt;n17 -->
<g id="edge12" class="edge">
<title>n9&#45;&gt;n17</title>
<path fill="none" stroke="#000000" d="M663.1306,-295.8314C663.1306,-288.131 663.1306,-278.9743 663.1306,-270.4166"/>
<polygon fill="#000000" stroke="#000000" points="666.6307,-270.4132 663.1306,-260.4133 659.6307,-270.4133 666.6307,-270.4132"/>
</g>
<!-- n10 -->
<g id="node11" class="node">
<title>n10</title>
<ellipse fill="none" stroke="#000000" cx="558.1306" cy="-98" rx="78.2349" ry="18"/>
<text text-anchor="middle" x="558.1306" y="-93.8" font-family="Times,serif" font-size="14.00" fill="#000000">etc3_card_train 0.1</text>
</g>
<!-- n21 -->
<g id="node22" class="node">
<title>n21</title>
<polygon fill="none" stroke="#000000" points="502.1968,-40 420.0643,-40 420.0643,-4 502.1968,-4 502.1968,-40"/>
<polygon fill="none" stroke="#000000" points="506.1999,-44 416.0612,-44 416.0612,0 506.1999,0 506.1999,-44"/>
<text text-anchor="middle" x="461.1306" y="-17.8" font-family="Times,serif" font-size="14.00" fill="#000000">(card_train)</text>
</g>
<!-- n10&#45;&gt;n21 -->
<g id="edge20" class="edge">
<title>n10&#45;&gt;n21</title>
<path fill="none" stroke="#000000" d="M535.633,-80.373C524.3392,-71.5243 510.3745,-60.5829 497.5988,-50.5731"/>
<polygon fill="#000000" stroke="#000000" points="499.4454,-47.5735 489.4151,-44.1611 495.1281,-53.0837 499.4454,-47.5735"/>
</g>
<!-- n11&#45;&gt;n13 -->
<g id="edge4" class="edge">
<title>n11&#45;&gt;n13</title>
<path fill="none" stroke="#000000" d="M60.1937,-439.9156C54.6285,-412.7281 45.1306,-359.6422 45.1306,-314 45.1306,-314 45.1306,-314 45.1306,-170 45.1306,-129.1184 47.7711,-117.4657 64.1306,-80 68.3126,-70.4225 74.2191,-60.8297 80.2501,-52.2814"/>
<polygon fill="#000000" stroke="#000000" points="83.149,-54.2474 86.2632,-44.1205 77.5135,-50.095 83.149,-54.2474"/>
</g>
<!-- n11&#45;&gt;n14 -->
<g id="edge6" class="edge">
<title>n11&#45;&gt;n14</title>
<path fill="none" stroke="#000000" d="M111.5709,-439.8314C137.05,-430.0734 168.6349,-417.977 195.4062,-407.7242"/>
<polygon fill="#000000" stroke="#000000" points="196.9446,-410.883 205.0314,-404.038 194.441,-404.346 196.9446,-410.883"/>
</g>
<!-- n12&#45;&gt;n15 -->
<g id="edge8" class="edge">
<title>n12&#45;&gt;n15</title>
<path fill="none" stroke="#000000" d="M591.709,-367.8314C567.421,-358.1162 537.3383,-346.0831 511.7786,-335.8592"/>
<polygon fill="#000000" stroke="#000000" points="512.8102,-332.5023 502.2255,-332.038 510.2104,-339.0016 512.8102,-332.5023"/>
</g>
<!-- n14&#45;&gt;n15 -->
<g id="edge9" class="edge">
<title>n14&#45;&gt;n15</title>
<path fill="none" stroke="#000000" d="M303.5961,-367.9243C331.6208,-358.0815 366.479,-345.8386 395.8945,-335.5073"/>
<polygon fill="#000000" stroke="#000000" points="397.3687,-338.6992 405.6438,-332.0831 395.049,-332.0947 397.3687,-338.6992"/>
</g>
<!-- n15&#45;&gt;n16 -->
<g id="edge11" class="edge">
<title>n15&#45;&gt;n16</title>
<path fill="none" stroke="#000000" d="M405.1629,-295.9243C376.7418,-286.0387 341.3603,-273.7321 311.5769,-263.3726"/>
<polygon fill="#000000" stroke="#000000" points="312.7144,-260.0627 302.1196,-260.0831 310.4147,-266.6742 312.7144,-260.0627"/>
</g>
<!-- n15&#45;&gt;n17 -->
<g id="edge13" class="edge">
<title>n15&#45;&gt;n17</title>
<path fill="none" stroke="#000000" d="M508.8472,-295.9243C537.0086,-286.0815 572.0368,-273.8386 601.5958,-263.5073"/>
<polygon fill="#000000" stroke="#000000" points="603.1075,-266.6866 611.3927,-260.0831 600.7978,-260.0786 603.1075,-266.6866"/>
</g>
<!-- n16&#45;&gt;n18 -->
<g id="edge15" class="edge">
<title>n16&#45;&gt;n18</title>
<path fill="none" stroke="#000000" d="M256.6915,-223.8314C259.5333,-215.9617 262.9243,-206.5712 266.0724,-197.8533"/>
<polygon fill="#000000" stroke="#000000" points="269.3767,-199.0076 269.4813,-188.4133 262.7929,-196.63 269.3767,-199.0076"/>
</g>
<!-- n17&#45;&gt;n19 -->
<g id="edge17" class="edge">
<title>n17&#45;&gt;n19</title>
<path fill="none" stroke="#000000" d="M662.9321,-223.953C663.1239,-193.439 665.8136,-130.0838 683.1306,-80 686.3822,-70.5956 691.3077,-61.072 696.4454,-52.5353"/>
<polygon fill="#000000" stroke="#000000" points="699.4291,-54.3656 701.8149,-44.0428 693.5125,-50.6246 699.4291,-54.3656"/>
</g>
<!-- n18&#45;&gt;n20 -->
<g id="edge19" class="edge">
<title>n18&#45;&gt;n20</title>
<path fill="none" stroke="#000000" d="M299.0937,-151.8314C310.3021,-142.9632 323.9514,-132.1637 336.0745,-122.5718"/>
<polygon fill="#000000" stroke="#000000" points="338.5042,-125.1125 344.1748,-116.1628 334.1608,-119.6229 338.5042,-125.1125"/>
</g>
<!-- n20&#45;&gt;n21 -->
<g id="edge21" class="edge">
<title>n20&#45;&gt;n21</title>
<path fill="none" stroke="#000000" d="M389.4072,-79.9891C400.274,-71.2032 413.6056,-60.4244 425.8143,-50.5536"/>
<polygon fill="#000000" stroke="#000000" points="428.062,-53.2372 433.6378,-44.2282 423.6609,-47.7938 428.062,-53.2372"/>
</g>
</g>
</svg>
