<?xml version="1.0" encoding="UTF-8" standalone="no"?>
<!DOCTYPE svg PUBLIC "-//W3C//DTD SVG 1.1//EN"
 "http://www.w3.org/Graphics/SVG/1.1/DTD/svg11.dtd">
<!-- Generated by graphviz version 2.40.1 (20161225.0304)
 -->
<!-- Title: proof Pages: 1 -->
<svg width="931pt" height="556pt"
 viewBox="0.00 0.00 930.55 556.00" xmlns="http://www.w3.org/2000/svg" xmlns:xlink="http://www.w3.org/1999/xlink">
<g id="graph0" class="graph" transform="scale(1 1) rotate(0) translate(4 552)">
<title>proof</title>
<polygon fill="#ffffff" stroke="transparent" points="-4,4 -4,-552 926.549,-552 926.549,4 -4,4"/>
<!-- n0 -->
<g id="node1" class="node">
<title>n0</title>
<ellipse fill="none" stroke="#000000" cx="531.4131" cy="-530" rx="98.0293" ry="18"/>
<text text-anchor="middle" x="531.4131" y="-525.8" font-family="Times,serif" font-size="14.00" fill="#000000">etc0_baseball_player 0.1</text>
</g>
<!-- n9 -->
<g id="node10" class="node">
<title>n9</title>
<polygon fill="none" stroke="#000000" points="606.6087,-476 456.2175,-476 456.2175,-440 606.6087,-440 606.6087,-476"/>
<text text-anchor="middle" x="531.4131" y="-453.8" font-family="Times,serif" font-size="14.00" fill="#000000">(baseball_player&#39; $1 $9)</text>
</g>
<!-- n0&#45;&gt;n9 -->
<g id="edge1" class="edge">
<title>n0&#45;&gt;n9</title>
<path fill="none" stroke="#000000" d="M531.4131,-511.8314C531.4131,-504.131 531.4131,-494.9743 531.4131,-486.4166"/>
<polygon fill="#000000" stroke="#000000" points="534.9132,-486.4132 531.4131,-476.4133 527.9132,-486.4133 534.9132,-486.4132"/>
</g>
<!-- n1 -->
<g id="node2" class="node">
<title>n1</title>
<ellipse fill="none" stroke="#000000" cx="393.4131" cy="-242" rx="85.0101" ry="18"/>
<text text-anchor="middle" x="393.4131" y="-237.8" font-family="Times,serif" font-size="14.00" fill="#000000">etc1_fall_in_love 0.1</text>
</g>
<!-- n16 -->
<g id="node17" class="node">
<title>n16</title>
<polygon fill="none" stroke="#000000" points="666.4082,-188 518.418,-188 518.418,-152 666.4082,-152 666.4082,-188"/>
<text text-anchor="middle" x="592.4131" y="-165.8" font-family="Times,serif" font-size="14.00" fill="#000000">(fall_in_love&#39; $8 $9 $6)</text>
</g>
<!-- n1&#45;&gt;n16 -->
<g id="edge13" class="edge">
<title>n1&#45;&gt;n16</title>
<path fill="none" stroke="#000000" d="M436.5931,-226.3771C464.8745,-216.1446 502.2074,-202.6372 533.2405,-191.4092"/>
<polygon fill="#000000" stroke="#000000" points="534.4396,-194.6974 542.6522,-188.0039 532.058,-188.115 534.4396,-194.6974"/>
</g>
<!-- n2 -->
<g id="node3" class="node">
<title>n2</title>
<ellipse fill="none" stroke="#000000" cx="254.4131" cy="-458" rx="99.9329" ry="18"/>
<text text-anchor="middle" x="254.4131" y="-453.8" font-family="Times,serif" font-size="14.00" fill="#000000">etc1_regular_practice 0.1</text>
</g>
<!-- n10 -->
<g id="node11" class="node">
<title>n10</title>
<polygon fill="none" stroke="#000000" points="343.6985,-404 165.1277,-404 165.1277,-368 343.6985,-368 343.6985,-404"/>
<text text-anchor="middle" x="254.4131" y="-381.8" font-family="Times,serif" font-size="14.00" fill="#000000">(regular_practice&#39; $10 $9 $2)</text>
</g>
<!-- n2&#45;&gt;n10 -->
<g id="edge2" class="edge">
<title>n2&#45;&gt;n10</title>
<path fill="none" stroke="#000000" d="M254.4131,-439.8314C254.4131,-432.131 254.4131,-422.9743 254.4131,-414.4166"/>
<polygon fill="#000000" stroke="#000000" points="257.9132,-414.4132 254.4131,-404.4133 250.9132,-414.4133 257.9132,-414.4132"/>
</g>
<!-- n3 -->
<g id="node4" class="node">
<title>n3</title>
<ellipse fill="none" stroke="#000000" cx="579.4131" cy="-314" rx="105.2542" ry="18"/>
<text text-anchor="middle" x="579.4131" y="-309.8" font-family="Times,serif" font-size="14.00" fill="#000000">etc1_repeated_meeting 0.1</text>
</g>
<!-- n14 -->
<g id="node15" class="node">
<title>n14</title>
<polygon fill="none" stroke="#000000" points="676.2637,-260 496.5624,-260 496.5624,-224 676.2637,-224 676.2637,-260"/>
<text text-anchor="middle" x="586.4131" y="-237.8" font-family="Times,serif" font-size="14.00" fill="#000000">(repeated_meeting&#39; $3 $9 $6)</text>
</g>
<!-- n3&#45;&gt;n14 -->
<g id="edge9" class="edge">
<title>n3&#45;&gt;n14</title>
<path fill="none" stroke="#000000" d="M581.1795,-295.8314C581.9281,-288.131 582.8184,-278.9743 583.6504,-270.4166"/>
<polygon fill="#000000" stroke="#000000" points="587.1387,-270.7051 584.6229,-260.4133 580.1716,-270.0276 587.1387,-270.7051"/>
</g>
<!-- n4 -->
<g id="node5" class="node">
<title>n4</title>
<ellipse fill="none" stroke="#000000" cx="394.4131" cy="-170" rx="106.2664" ry="18"/>
<text text-anchor="middle" x="394.4131" y="-165.8" font-family="Times,serif" font-size="14.00" fill="#000000">etc1_symbolic_of_love 0.1</text>
</g>
<!-- n17 -->
<g id="node18" class="node">
<title>n17</title>
<polygon fill="none" stroke="#000000" points="672.8571,-116 525.9691,-116 525.9691,-80 672.8571,-80 672.8571,-116"/>
<text text-anchor="middle" x="599.4131" y="-93.8" font-family="Times,serif" font-size="14.00" fill="#000000">(symbolic_of_love&#39; $7)</text>
</g>
<!-- n4&#45;&gt;n17 -->
<g id="edge15" class="edge">
<title>n4&#45;&gt;n17</title>
<path fill="none" stroke="#000000" d="M440.6747,-153.752C469.5701,-143.6034 507.1018,-130.4215 538.4156,-119.4235"/>
<polygon fill="#000000" stroke="#000000" points="539.6424,-122.7023 547.9176,-116.0862 537.3227,-116.0978 539.6424,-122.7023"/>
</g>
<!-- n5 -->
<g id="node6" class="node">
<title>n5</title>
<ellipse fill="none" stroke="#000000" cx="465.4131" cy="-386" rx="103.3678" ry="18"/>
<text text-anchor="middle" x="465.4131" y="-381.8" font-family="Times,serif" font-size="14.00" fill="#000000">etc1_train_commuting 0.1</text>
</g>
<!-- n12 -->
<g id="node13" class="node">
<title>n12</title>
<polygon fill="none" stroke="#000000" points="360.1876,-332 148.6386,-332 148.6386,-296 360.1876,-296 360.1876,-332"/>
<text text-anchor="middle" x="254.4131" y="-309.8" font-family="Times,serif" font-size="14.00" fill="#000000">(train_commuting&#39; $5 $4 $2 $9 $6)</text>
</g>
<!-- n5&#45;&gt;n12 -->
<g id="edge6" class="edge">
<title>n5&#45;&gt;n12</title>
<path fill="none" stroke="#000000" d="M418.3232,-369.9314C388.4939,-359.7527 349.5675,-346.4698 317.1347,-335.4027"/>
<polygon fill="#000000" stroke="#000000" points="317.8897,-331.9621 307.2951,-332.0451 315.629,-338.5871 317.8897,-331.9621"/>
</g>
<!-- n6 -->
<g id="node7" class="node">
<title>n6</title>
<ellipse fill="none" stroke="#000000" cx="831.4131" cy="-98" rx="91.2721" ry="18"/>
<text text-anchor="middle" x="831.4131" y="-93.8" font-family="Times,serif" font-size="14.00" fill="#000000">etc2_card_baseball 0.1</text>
</g>
<!-- n11 -->
<g id="node12" class="node">
<title>n11</title>
<polygon fill="none" stroke="#000000" points="822.6864,-40 720.1398,-40 720.1398,-4 822.6864,-4 822.6864,-40"/>
<polygon fill="none" stroke="#000000" points="826.6967,-44 716.1295,-44 716.1295,0 826.6967,0 826.6967,-44"/>
<text text-anchor="middle" x="771.4131" y="-17.8" font-family="Times,serif" font-size="14.00" fill="#000000">(card_baseball)</text>
</g>
<!-- n6&#45;&gt;n11 -->
<g id="edge4" class="edge">
<title>n6&#45;&gt;n11</title>
<path fill="none" stroke="#000000" d="M817.1939,-79.9891C810.6541,-71.7053 802.7155,-61.6498 795.2979,-52.2541"/>
<polygon fill="#000000" stroke="#000000" points="797.9053,-49.9083 788.9617,-44.2282 792.4111,-54.2458 797.9053,-49.9083"/>
</g>
<!-- n7 -->
<g id="node8" class="node">
<title>n7</title>
<ellipse fill="none" stroke="#000000" cx="428.4131" cy="-98" rx="79.6713" ry="18"/>
<text text-anchor="middle" x="428.4131" y="-93.8" font-family="Times,serif" font-size="14.00" fill="#000000">etc2_card_heart 0.1</text>
</g>
<!-- n18 -->
<g id="node19" class="node">
<title>n18</title>
<polygon fill="none" stroke="#000000" points="552.7904,-40 468.0358,-40 468.0358,-4 552.7904,-4 552.7904,-40"/>
<polygon fill="none" stroke="#000000" points="556.8075,-44 464.0187,-44 464.0187,0 556.8075,0 556.8075,-44"/>
<text text-anchor="middle" x="510.4131" y="-17.8" font-family="Times,serif" font-size="14.00" fill="#000000">(card_heart)</text>
</g>
<!-- n7&#45;&gt;n18 -->
<g id="edge17" class="edge">
<title>n7&#45;&gt;n18</title>
<path fill="none" stroke="#000000" d="M447.4316,-80.373C456.7972,-71.6928 468.3352,-60.999 478.966,-51.1461"/>
<polygon fill="#000000" stroke="#000000" points="481.5473,-53.5258 486.5024,-44.1611 476.7889,-48.3917 481.5473,-53.5258"/>
</g>
<!-- n8 -->
<g id="node9" class="node">
<title>n8</title>
<ellipse fill="none" stroke="#000000" cx="252.4131" cy="-98" rx="78.2349" ry="18"/>
<text text-anchor="middle" x="252.4131" y="-93.8" font-family="Times,serif" font-size="14.00" fill="#000000">etc2_train_card 0.1</text>
</g>
<!-- n15 -->
<g id="node16" class="node">
<title>n15</title>
<polygon fill="none" stroke="#000000" points="240.4794,-40 158.3468,-40 158.3468,-4 240.4794,-4 240.4794,-40"/>
<polygon fill="none" stroke="#000000" points="244.4824,-44 154.3437,-44 154.3437,0 244.4824,0 244.4824,-44"/>
<text text-anchor="middle" x="199.4131" y="-17.8" font-family="Times,serif" font-size="14.00" fill="#000000">(card_train)</text>
</g>
<!-- n8&#45;&gt;n15 -->
<g id="edge11" class="edge">
<title>n8&#45;&gt;n15</title>
<path fill="none" stroke="#000000" d="M239.8528,-79.9891C234.1343,-71.7889 227.2051,-61.8527 220.71,-52.539"/>
<polygon fill="#000000" stroke="#000000" points="223.5054,-50.4286 214.9143,-44.2282 217.7636,-54.4327 223.5054,-50.4286"/>
</g>
<!-- n9&#45;&gt;n10 -->
<g id="edge3" class="edge">
<title>n9&#45;&gt;n10</title>
<path fill="none" stroke="#000000" d="M461.8718,-439.9243C422.9341,-429.8033 374.2336,-417.1447 333.8046,-406.6361"/>
<polygon fill="#000000" stroke="#000000" points="334.5419,-403.2115 323.983,-404.0831 332.7808,-409.9863 334.5419,-403.2115"/>
</g>
<!-- n9&#45;&gt;n11 -->
<g id="edge5" class="edge">
<title>n9&#45;&gt;n11</title>
<path fill="none" stroke="#000000" d="M587.6904,-439.9358C640.8234,-418.9377 712.4131,-378.6499 712.4131,-314 712.4131,-314 712.4131,-314 712.4131,-170 712.4131,-129.1184 715.271,-117.5599 731.4131,-80 735.5063,-70.4758 741.2732,-60.901 747.1571,-52.353"/>
<polygon fill="#000000" stroke="#000000" points="750.0313,-54.351 753.0223,-44.1871 744.3458,-50.2673 750.0313,-54.351"/>
</g>
<!-- n10&#45;&gt;n12 -->
<g id="edge7" class="edge">
<title>n10&#45;&gt;n12</title>
<path fill="none" stroke="#000000" d="M254.4131,-367.8314C254.4131,-360.131 254.4131,-350.9743 254.4131,-342.4166"/>
<polygon fill="#000000" stroke="#000000" points="257.9132,-342.4132 254.4131,-332.4133 250.9132,-342.4133 257.9132,-342.4132"/>
</g>
<!-- n13 -->
<g id="node14" class="node">
<title>n13</title>
<polygon fill="none" stroke="#000000" points="118.7394,-260 .0868,-260 .0868,-224 118.7394,-224 118.7394,-260"/>
<text text-anchor="middle" x="59.4131" y="-237.8" font-family="Times,serif" font-size="14.00" fill="#000000">(conductor&#39; $5 $6)</text>
</g>
<!-- n12&#45;&gt;n13 -->
<g id="edge8" class="edge">
<title>n12&#45;&gt;n13</title>
<path fill="none" stroke="#000000" d="M205.4581,-295.9243C178.9163,-286.1243 145.9308,-273.945 118.0273,-263.6422"/>
<polygon fill="#000000" stroke="#000000" points="118.9816,-260.2636 108.3883,-260.0831 116.5569,-266.8303 118.9816,-260.2636"/>
</g>
<!-- n12&#45;&gt;n14 -->
<g id="edge10" class="edge">
<title>n12&#45;&gt;n14</title>
<path fill="none" stroke="#000000" d="M337.7622,-295.9243C385.113,-285.6554 444.5096,-272.7743 493.3754,-262.1768"/>
<polygon fill="#000000" stroke="#000000" points="494.2867,-265.5607 503.3177,-260.0207 492.8031,-258.7197 494.2867,-265.5607"/>
</g>
<!-- n12&#45;&gt;n15 -->
<g id="edge12" class="edge">
<title>n12&#45;&gt;n15</title>
<path fill="none" stroke="#000000" d="M243.0325,-295.8006C222.6191,-261.9599 180.5045,-186.3844 165.4131,-116 162.0587,-100.3556 161.2209,-95.441 165.4131,-80 167.9509,-70.6524 172.4161,-61.2705 177.2924,-52.8587"/>
<polygon fill="#000000" stroke="#000000" points="180.3895,-54.5051 182.6734,-44.1593 174.4363,-50.8227 180.3895,-54.5051"/>
</g>
<!-- n14&#45;&gt;n16 -->
<g id="edge14" class="edge">
<title>n14&#45;&gt;n16</title>
<path fill="none" stroke="#000000" d="M587.9271,-223.8314C588.5688,-216.131 589.3319,-206.9743 590.045,-198.4166"/>
<polygon fill="#000000" stroke="#000000" points="593.536,-198.6694 590.8786,-188.4133 586.5602,-198.088 593.536,-198.6694"/>
</g>
<!-- n16&#45;&gt;n17 -->
<g id="edge16" class="edge">
<title>n16&#45;&gt;n17</title>
<path fill="none" stroke="#000000" d="M594.1795,-151.8314C594.9281,-144.131 595.8184,-134.9743 596.6504,-126.4166"/>
<polygon fill="#000000" stroke="#000000" points="600.1387,-126.7051 597.6229,-116.4133 593.1716,-126.0276 600.1387,-126.7051"/>
</g>
<!-- n17&#45;&gt;n18 -->
<g id="edge18" class="edge">
<title>n17&#45;&gt;n18</title>
<path fill="none" stroke="#000000" d="M578.3213,-79.9891C568.1306,-71.2869 555.6503,-60.6295 544.1814,-50.8358"/>
<polygon fill="#000000" stroke="#000000" points="546.321,-48.0605 536.4435,-44.2282 541.7753,-53.3837 546.321,-48.0605"/>
</g>
</g>
</svg>
